<svg xmlns="http://www.w3.org/2000/svg" width="25" height="25" viewBox="0 0 25 25" fill="none">
  <path d="M13.2799 24.4831H11.1212V23.4038H10.0419V22.3245H8.96261V21.2452H7.8833V20.1659H6.80399V19.0866H5.72468V18.0072H4.64537V16.9279H3.56606V15.8486H2.48675V14.7693H1.40744V13.69H0.328125V12.6107H1.40744V11.5314H2.48675V10.4521H3.56606V11.5314H4.64537V12.6107H5.72468V13.69H6.80399V14.7693H7.8833V15.8486H8.96261V16.9279H10.0419V0.738281H14.3592V16.9279H15.4385V15.8486H16.5178V14.7693H17.5971V13.69H18.6764V12.6107H19.7557V11.5314H20.835V10.4521H21.9143V11.5314H22.9936V12.6107H24.073V13.69H22.9936V14.7693H21.9143V15.8486H20.835V16.9279H19.7557V18.0072H18.6764V19.0866H17.5971V20.1659H16.5178V21.2452H15.4385V22.3245H14.3592V23.4038H13.2799V24.4831Z" fill="white"/>
</svg>