<svg width="226" height="140" viewBox="0 0 226 140" fill="none" xmlns="http://www.w3.org/2000/svg">
<path d="M132.982 8.25744L125.406 15.4064L126.046 21.8084L126.687 28.1038L142.692 37.8135C172.995 56.0594 193.055 67.1562 195.829 67.1562C198.069 67.1562 220.157 56.6996 222.397 54.4589C222.824 54.1388 223.358 51.7913 223.678 49.5506C223.891 47.2032 224.425 44.429 224.851 43.362C225.278 42.295 225.492 41.3347 225.278 41.1213C223.358 39.6275 166.913 8.04404 162.431 6.01673C157.203 3.66931 146.106 0.89509 142.052 1.00179C141.198 1.10849 137.143 4.30951 132.982 8.25744ZM154.429 9.96465C179.29 23.3022 202.551 36.1063 204.472 37.4934C206.392 38.8806 206.285 39.3074 201.377 46.6697C198.603 50.9377 195.935 54.3522 195.615 54.3522C195.189 54.3522 193.908 53.712 192.841 52.8584C191.667 52.0047 184.945 48.2702 177.903 44.5357C170.861 40.8012 158.163 33.4388 149.734 28.3172C141.305 23.0888 132.982 18.394 131.275 17.8605C129.674 17.2203 128.287 16.4734 128.287 16.1533C128.287 15.2997 141.518 3.13581 142.158 3.45591C142.478 3.56261 148.027 6.55023 154.429 9.96465ZM166.913 10.2848C170.007 11.992 180.037 17.6471 189.107 22.8754C198.176 27.9971 208.099 33.6522 210.98 35.2527C215.675 37.9202 215.995 38.347 213.434 38.347C211.727 38.347 200.203 32.5852 185.265 24.3693C171.288 16.6868 157.737 9.32445 155.282 8.15074C152.828 6.97703 151.014 5.58992 151.335 5.16312C152.081 3.98941 160.297 6.65693 166.913 10.2848ZM132.769 20.8481C134.689 21.8084 143.119 26.8234 151.655 31.8383C160.297 36.9599 173.635 44.6424 181.424 48.9104C189.213 53.1785 195.935 57.3398 196.256 58.1934C196.576 59.047 196.469 60.9676 196.149 62.4614C195.615 64.4887 194.975 65.0222 193.588 64.4887C190.28 63.315 155.603 43.4687 141.945 34.9326C128.714 26.7167 128.287 26.3966 128.287 22.7687C128.287 18.6074 128.394 18.6074 132.769 20.8481ZM218.663 41.7615C222.077 42.7218 222.184 42.9352 221.544 47.2032C220.69 53.2852 220.37 54.3522 218.876 54.3522C218.129 54.3522 217.916 53.2852 218.129 51.7913C219.09 46.6697 217.596 46.3496 209.486 50.0841L201.911 53.6053V58.0867C201.911 60.6475 201.27 63.2083 200.417 63.8485C199.136 64.9155 198.816 64.382 198.176 60.7542C197.536 56.6996 197.856 55.7393 202.017 49.764C209.807 38.347 208.953 38.7739 218.663 41.7615ZM215.995 52.9651C215.035 58.0867 211.514 59.2604 211.514 54.5656C211.514 51.0444 212.261 50.0841 214.715 50.0841C216.102 50.0841 216.422 50.7243 215.995 52.9651ZM209.38 55.7393C209.38 58.5135 208.74 59.5805 206.712 60.5408C204.151 61.7145 204.045 61.6078 204.045 58.0867C204.045 55.7393 204.685 54.0321 205.965 53.3919C208.846 51.6846 209.38 52.0047 209.38 55.7393Z" fill="black"/>
<path d="M145.896 12.3172C139.708 15.4115 139.388 16.4785 143.762 19.146C145.896 20.4264 147.71 21.3868 147.924 21.1733C149.524 19.3594 151.765 13.2775 151.338 12.1038C150.591 10.1832 149.844 10.1832 145.896 12.3172ZM149.631 14.878C149.631 16.2651 148.884 17.012 147.71 17.012C144.723 17.012 144.082 15.8383 146.217 14.2378C148.777 12.2105 149.631 12.4239 149.631 14.878Z" fill="black"/>
<path d="M166.169 21.4906C159.66 23.7313 157.42 27.6792 161.261 29.8132C164.569 31.5204 165.316 31.2003 168.197 25.972C171.931 19.3566 171.931 19.4633 166.169 21.4906ZM165.209 26.1854C162.008 28.4261 160.514 27.8926 163.395 25.4385C164.782 24.2648 166.276 23.6246 166.596 24.0514C166.916 24.3715 166.276 25.3318 165.209 26.1854Z" fill="black"/>
<path d="M181.11 32.3801C177.056 34.0874 174.708 36.8616 176.309 37.8219C176.949 38.2487 178.23 37.9286 179.083 37.1817C180.364 36.1147 180.47 36.2214 179.937 37.7152C178.976 40.1693 182.391 41.1296 184.738 38.9956C185.912 37.9286 186.979 35.7946 187.192 33.9807C187.726 30.4595 186.339 30.0327 181.11 32.3801ZM184.845 33.7673C184.738 35.6879 182.924 37.5018 182.284 36.3281C181.857 35.6879 181.857 34.6209 182.177 34.0874C182.924 32.8069 184.845 32.7002 184.845 33.7673Z" fill="black"/>
<path d="M133.52 26.6109C135.974 28.745 137.894 29.3852 137.894 28.1048C137.894 26.931 134.267 24.5836 132.559 24.5836C131.492 24.5836 131.706 25.2238 133.52 26.6109Z" fill="black"/>
<path d="M143.445 32.0504C143.979 33.7576 152.835 38.7725 152.835 37.3854C152.835 36.3184 145.152 30.8767 143.658 30.8767C143.338 30.8767 143.232 31.4102 143.445 32.0504Z" fill="black"/>
<path d="M160.306 41.9827C160.946 42.8363 163.187 44.5435 165.321 45.8239C170.016 48.5981 169.482 46.144 164.574 42.8363C160.626 40.1688 158.385 39.742 160.306 41.9827Z" fill="black"/>
<path d="M178.448 52.2175C178.448 53.4979 186.984 57.8726 187.838 57.1257C188.158 56.6989 187.518 55.7386 186.344 54.885C183.463 52.751 178.448 51.0438 178.448 52.2175Z" fill="black"/>
<path d="M208.323 44.7494C208.323 45.2829 209.07 45.8164 209.924 45.8164C210.777 45.8164 211.524 45.2829 211.524 44.7494C211.524 44.1092 210.777 43.6824 209.924 43.6824C209.07 43.6824 208.323 44.1092 208.323 44.7494Z" fill="black"/>
<path d="M110.477 32.9058C104.609 36.2135 95.2192 41.0151 89.6708 43.5759C84.2291 46.1367 79.0007 48.5908 78.1471 49.1243C77.2935 49.5511 72.492 52.2186 67.477 54.9929C62.4621 57.7671 55.4199 61.6083 51.6853 63.5289C47.9508 65.4495 44.1096 67.6902 43.256 68.4371C41.8689 69.6109 41.4421 69.6109 41.0153 68.4371C40.6951 67.3701 40.0549 67.4768 38.241 69.0774C36.2137 70.8913 8.36482 86.683 2.81638 89.1371C1.10917 89.884 0.682365 90.6309 1.21587 92.1247C1.96277 94.152 2.06947 94.152 4.31019 91.9113C5.5906 90.6309 9.00502 88.3902 11.9926 86.8964C14.8736 85.4026 21.3823 81.7747 26.5039 78.7871C35.4668 73.4521 39.8415 72.5985 37.7075 76.4397C36.8539 78.0402 16.3674 88.9237 4.84369 93.9386C-1.34495 96.6061 -0.171241 98.2067 13.9133 106.209C19.9952 109.73 26.5039 113.358 28.3179 114.532C30.2385 115.599 40.9086 121.574 52.0054 127.656C63.209 133.845 72.8121 139.286 73.4523 139.82C74.1992 140.46 76.8667 139.393 80.9213 136.619C84.4425 134.378 91.2713 130.217 96.2862 127.443C111.331 118.907 119.547 114.105 135.766 104.502C150.063 95.9659 178.659 80.8144 183.034 79.534C184.314 79.1072 184.848 77.8268 184.848 74.7325C184.848 72.3851 185.168 69.8243 185.488 68.8639C185.915 67.6902 185.595 67.1567 184.314 67.1567C183.354 67.1567 178.126 64.1691 172.684 60.4346C167.349 56.8068 161.694 53.0722 160.093 52.2186C148.89 45.9233 122.001 29.0646 121.681 28.1043C121.468 27.4641 116.666 29.4914 110.477 32.9058ZM118.693 33.9728C118.693 36.6403 118.053 37.2805 113.145 39.4145C110.051 40.695 100.874 45.0697 92.8718 49.1243C79.1074 55.9532 78.1471 56.2733 78.1471 54.0325C78.1471 52.0052 81.2414 50.0846 98.2069 41.3352C109.197 35.68 118.267 30.9852 118.48 30.9852C118.587 30.8785 118.693 32.2656 118.693 33.9728ZM131.071 36.9604C137.046 40.5883 139.607 42.829 139.82 44.4295C140.14 46.6702 139.287 46.3501 130.537 41.3352C124.028 37.6006 120.827 35.1465 120.827 33.8661C120.827 32.7991 121.254 31.9455 121.681 31.9455C122.215 31.9455 126.376 34.1862 131.071 36.9604ZM130.324 43.7893C145.689 52.7521 146.542 53.2856 160.627 62.5686C168.096 67.4768 174.178 71.9583 174.178 72.4918C174.178 73.3454 147.716 88.4969 146.222 88.4969C145.795 88.4969 140.034 91.8046 133.311 95.8592C126.589 100.021 118.8 104.395 115.919 105.676C108.984 108.77 109.731 108.343 92.7651 119.013C84.6559 124.028 77.1868 128.296 76.2265 128.403C75.2662 128.403 74.1992 128.83 73.8791 129.257C73.3456 129.897 55.5266 119.76 52.3255 116.986C51.3652 116.026 50.2982 115.599 49.9781 115.919C49.658 116.239 45.4967 114.318 40.6951 111.544C35.8936 108.877 31.6256 106.636 31.1988 106.636C30.772 106.636 29.8117 105.889 29.0648 105.036C28.3179 104.182 27.1442 103.435 26.2905 103.435C25.0101 103.435 10.9256 95.1123 10.9256 94.2587C10.9256 94.152 17.3277 90.6309 25.1168 86.5763C43.5761 76.8665 70.6781 62.5686 73.3456 60.9681C77.7203 58.4073 119.227 38.3475 120.187 38.3475C120.721 38.3475 125.202 40.8017 130.324 43.7893ZM149.103 47.9506C151.451 49.5511 155.398 52.1119 157.959 53.7124C160.413 55.2063 162.441 57.0202 162.441 57.5537C162.441 58.0872 163.081 58.3006 163.935 57.9805C164.788 57.6604 167.562 59.0475 170.123 60.9681C172.791 62.8887 176.312 65.5562 178.019 66.7299C180.473 68.6505 180.793 69.3975 179.833 70.4645C178.766 71.5315 176.952 70.7846 170.87 66.5165C166.602 63.6356 162.441 60.7547 161.48 60.2212C143.555 49.231 140.994 47.3104 141.847 45.1764C142.488 43.5759 142.701 43.6826 149.103 47.9506ZM76.0131 55.0996C76.0131 57.1269 74.4126 58.0872 53.7126 68.8639C46.457 72.7052 40.2683 75.5861 40.0549 75.266C38.3477 73.6655 42.0823 70.8913 55.3132 64.0624C63.4224 59.7944 70.9982 55.6331 72.1719 54.7795C75.0528 52.7521 76.0131 52.8588 76.0131 55.0996ZM181.54 75.3727C180.58 77.0799 176.205 79.9608 168.843 83.6954C162.654 86.7897 154.652 91.0577 151.024 93.085C144.942 96.6061 144.302 96.7128 144.302 94.7922C144.302 92.5515 145.155 92.018 164.575 81.0278C172.364 76.5464 176.525 74.7325 178.232 75.1593C180.046 75.5861 180.58 75.266 180.58 73.7722C180.58 71.3181 181.967 69.7176 182.5 71.4248C182.821 72.1717 182.287 73.8789 181.54 75.3727ZM142.168 95.8592C142.168 97.9933 136.086 102.261 120.294 111.331C111.971 116.026 111.758 116.132 111.224 113.785C110.691 111.758 111.971 110.691 121.574 105.356C127.656 101.941 134.378 97.9933 136.512 96.4994C141.314 93.2984 142.168 93.1917 142.168 95.8592ZM15.6205 100.127C19.2483 102.368 27.8911 107.17 34.9333 110.797C41.8689 114.425 48.2709 117.946 49.0178 118.586C50.2982 119.654 51.0451 123.708 49.8714 123.708C48.591 123.708 29.705 112.611 27.8911 110.797C26.9308 109.837 25.8637 109.197 25.5436 109.41C24.7967 110.157 5.2705 98.7402 4.73699 97.2463C3.88339 94.6855 9.11173 95.9659 15.6205 100.127ZM107.276 118.16C104.716 119.974 76.76 136.512 76.2265 136.512C76.0131 136.512 76.0131 135.339 76.2265 133.951C76.4399 131.817 79.6409 129.363 92.5517 121.574C107.49 112.611 108.557 112.078 108.877 114.318C109.197 115.812 108.557 117.306 107.276 118.16ZM63.8492 126.482C71.8518 131.284 73.8791 132.991 73.8791 134.912C73.8791 137.259 73.2389 137.046 63.209 131.284C54.6729 126.482 52.5389 124.882 52.5389 122.855C52.5389 121.574 52.859 120.507 53.1791 120.507C53.4992 120.507 58.3008 123.175 63.8492 126.482Z" fill="black"/>
<path d="M48.97 75.5034C45.5632 77.4841 39.938 84.1393 39.3834 86.5953C39.1457 87.7045 38.5911 89.4475 38.1949 90.4775C37.7988 91.5075 37.4819 93.6466 37.4819 95.2312C37.4819 96.895 37.0065 98.7172 36.5312 99.2718C35.6596 100.064 35.8181 100.539 37.3234 101.49C38.2742 102.203 39.0665 103.312 39.0665 103.946C39.0665 104.976 39.3041 104.976 40.0172 104.263C40.8095 103.471 41.3641 104.026 42.7902 106.64L44.5332 110.047L44.6124 101.49V93.0128H47.7023C50.713 93.0128 50.8715 93.092 53.2483 98.3211C54.5952 101.173 55.9421 104.422 56.1797 105.452C56.4967 106.402 57.1305 107.274 57.7643 107.274C59.2696 107.274 59.2696 107.353 55.4667 99.1134L52.0599 91.8244L52.9314 84.6939L53.8029 77.5633L56.1797 82.7131C57.4474 85.5654 59.745 90.636 61.2503 93.9636C62.9934 97.7665 64.261 99.8264 64.7364 99.3511C65.8456 98.2419 54.199 73.998 52.6145 73.998C51.9014 73.998 50.2376 74.6319 48.97 75.5034ZM52.1391 77.7218C51.9807 78.9894 51.4261 82.5547 50.8715 85.6446L49.9999 91.4282H47.1477C44.2955 91.4282 40.651 88.9722 40.651 87.0707C40.651 85.803 50.3169 75.5826 51.5053 75.5826C52.1391 75.5826 52.3768 76.3749 52.1391 77.7218ZM41.0472 92.1413C40.8095 92.6167 40.1756 93.0128 39.7003 93.0128C39.2249 93.0128 39.2249 92.5374 39.8587 91.8244C40.9679 90.4775 41.9187 90.7944 41.0472 92.1413ZM41.7602 94.9935C40.3341 97.6873 39.0665 98.638 39.0665 96.9742C39.0665 95.7858 42.394 91.349 42.8694 91.8244C43.1071 92.0621 42.6317 93.4882 41.7602 94.9935ZM43.424 97.608C42.7902 98.2419 41.4433 96.8158 41.9187 96.0235C42.2356 95.5481 42.6317 95.6273 43.1071 96.2612C43.424 96.8158 43.5825 97.4496 43.424 97.608ZM41.4433 100.223C40.651 101.569 39.0665 102.362 39.0665 101.253C39.0665 100.064 40.8095 97.7665 41.5225 98.1626C41.9187 98.4796 41.9187 99.1926 41.4433 100.223ZM39.0665 98.9549C39.0665 99.1926 38.908 99.3511 38.6703 99.3511C38.4326 99.3511 38.2742 99.1926 38.2742 98.9549C38.2742 98.7172 38.4326 98.5588 38.6703 98.5588C38.908 98.5588 39.0665 98.7172 39.0665 98.9549ZM43.0279 102.203C43.0279 102.837 42.711 103.154 42.2356 102.916C41.8394 102.679 41.4433 102.124 41.4433 101.649C41.4433 101.253 41.8394 100.936 42.2356 100.936C42.711 100.936 43.0279 101.49 43.0279 102.203Z" fill="black"/>
<g filter="url(#filter0_f_23_4438)">
<path d="M48.97 75.5034C45.5632 77.4841 39.938 84.1393 39.3834 86.5953C39.1457 87.7045 38.5911 89.4475 38.1949 90.4775C37.7988 91.5075 37.4819 93.6466 37.4819 95.2312C37.4819 96.895 37.0065 98.7172 36.5312 99.2718C35.6596 100.064 35.8181 100.539 37.3234 101.49C38.2742 102.203 39.0665 103.312 39.0665 103.946C39.0665 104.976 39.3041 104.976 40.0172 104.263C40.8095 103.471 41.3641 104.026 42.7902 106.64L44.5332 110.047L44.6124 101.49V93.0128H47.7023C50.713 93.0128 50.8715 93.092 53.2483 98.3211C54.5952 101.173 55.9421 104.422 56.1797 105.452C56.4967 106.402 57.1305 107.274 57.7643 107.274C59.2696 107.274 59.2696 107.353 55.4667 99.1134L52.0599 91.8244L52.9314 84.6939L53.8029 77.5633L56.1797 82.7131C57.4474 85.5654 59.745 90.636 61.2503 93.9636C62.9934 97.7665 64.261 99.8264 64.7364 99.3511C65.8456 98.2419 54.199 73.998 52.6145 73.998C51.9014 73.998 50.2376 74.6319 48.97 75.5034ZM52.1391 77.7218C51.9807 78.9894 51.4261 82.5547 50.8715 85.6446L49.9999 91.4282H47.1477C44.2955 91.4282 40.651 88.9722 40.651 87.0707C40.651 85.803 50.3169 75.5826 51.5053 75.5826C52.1391 75.5826 52.3768 76.3749 52.1391 77.7218ZM41.0472 92.1413C40.8095 92.6167 40.1756 93.0128 39.7003 93.0128C39.2249 93.0128 39.2249 92.5374 39.8587 91.8244C40.9679 90.4775 41.9187 90.7944 41.0472 92.1413ZM41.7602 94.9935C40.3341 97.6873 39.0665 98.638 39.0665 96.9742C39.0665 95.7858 42.394 91.349 42.8694 91.8244C43.1071 92.0621 42.6317 93.4882 41.7602 94.9935ZM43.424 97.608C42.7902 98.2419 41.4433 96.8158 41.9187 96.0235C42.2356 95.5481 42.6317 95.6273 43.1071 96.2612C43.424 96.8158 43.5825 97.4496 43.424 97.608ZM41.4433 100.223C40.651 101.569 39.0665 102.362 39.0665 101.253C39.0665 100.064 40.8095 97.7665 41.5225 98.1626C41.9187 98.4796 41.9187 99.1926 41.4433 100.223ZM39.0665 98.9549C39.0665 99.1926 38.908 99.3511 38.6703 99.3511C38.4326 99.3511 38.2742 99.1926 38.2742 98.9549C38.2742 98.7172 38.4326 98.5588 38.6703 98.5588C38.908 98.5588 39.0665 98.7172 39.0665 98.9549ZM43.0279 102.203C43.0279 102.837 42.711 103.154 42.2356 102.916C41.8394 102.679 41.4433 102.124 41.4433 101.649C41.4433 101.253 41.8394 100.936 42.2356 100.936C42.711 100.936 43.0279 101.49 43.0279 102.203Z" fill="black"/>
</g>
<path d="M98.735 79.5508C100.931 80.9863 104.439 85.6069 104.722 87.2591C104.842 88.0048 105.15 89.183 105.377 89.8816C105.605 90.5801 105.741 92.0134 105.686 93.0669C105.628 94.1731 105.881 95.4012 106.177 95.7864C106.729 96.3435 106.607 96.6541 105.573 97.2338C104.916 97.6747 104.351 98.3846 104.329 98.806C104.293 99.4908 104.135 99.4825 103.686 98.9836C103.187 98.4292 102.799 98.7787 101.759 100.467L100.482 102.672L100.727 96.9799L101.022 91.3437L98.9681 91.2361C96.9665 91.1313 96.8584 91.1784 95.096 94.5722C94.1012 96.4216 93.0926 98.5344 92.8987 99.2109C92.6549 99.832 92.2032 100.389 91.7818 100.367C90.781 100.315 90.7782 100.367 93.5935 95.0217L96.1124 90.2942L95.7812 85.5231L95.4501 80.752L93.6905 84.0932C92.7484 85.9453 91.0443 89.2365 89.9276 91.3964C88.6363 93.8641 87.7218 95.1896 87.4223 94.857C86.7234 94.0809 95.3109 78.3679 96.3644 78.423C96.8385 78.4479 97.9226 78.9272 98.735 79.5508ZM96.5508 80.9153C96.612 81.7636 96.8566 84.1533 97.1177 86.227L97.4957 90.1026L99.392 90.2019C101.288 90.3012 103.797 88.7952 103.863 87.531C103.907 86.6882 97.8368 79.5566 97.0467 79.5152C96.6253 79.4931 96.4397 80.0116 96.5508 80.9153ZM103.423 90.8884C103.565 91.2128 103.972 91.4982 104.288 91.5148C104.604 91.5313 104.621 91.2153 104.224 90.7191C103.534 89.785 102.891 89.9626 103.423 90.8884ZM102.85 92.7599C103.704 94.6005 104.514 95.2768 104.572 94.1706C104.613 93.3805 102.555 90.3148 102.223 90.6143C102.056 90.764 102.323 91.7287 102.85 92.7599ZM101.653 94.4402C102.052 94.8837 102.997 93.9825 102.709 93.4392C102.514 93.1121 102.248 93.151 101.91 93.5558C101.68 93.9135 101.553 94.3294 101.653 94.4402ZM102.878 96.2475C103.358 97.1706 104.384 97.7525 104.423 97.015C104.464 96.2249 103.385 94.6366 102.897 94.8752C102.623 95.0721 102.598 95.5462 102.878 96.2475ZM104.503 95.4875C104.495 95.6455 104.594 95.7564 104.752 95.7646C104.91 95.7729 105.021 95.6731 105.03 95.5151C105.038 95.357 104.938 95.2462 104.78 95.2379C104.622 95.2296 104.511 95.3294 104.503 95.4875ZM101.756 97.5092C101.734 97.9306 101.934 98.1523 102.258 98.0109C102.529 97.8666 102.812 97.5117 102.829 97.1956C102.843 96.9323 102.59 96.7078 102.327 96.694C102.011 96.6774 101.781 97.0351 101.756 97.5092Z" fill="black"/>
<g filter="url(#filter1_f_23_4438)">
<path d="M98.735 79.5508C100.931 80.9863 104.439 85.6069 104.722 87.2591C104.842 88.0048 105.15 89.183 105.377 89.8816C105.605 90.5801 105.741 92.0134 105.686 93.0669C105.628 94.1731 105.881 95.4012 106.177 95.7864C106.729 96.3435 106.607 96.6541 105.573 97.2338C104.916 97.6747 104.351 98.3846 104.329 98.806C104.293 99.4908 104.135 99.4825 103.686 98.9836C103.187 98.4292 102.799 98.7787 101.759 100.467L100.482 102.672L100.727 96.9799L101.022 91.3437L98.9681 91.2361C96.9665 91.1313 96.8584 91.1784 95.096 94.5722C94.1012 96.4216 93.0926 98.5344 92.8987 99.2109C92.6549 99.832 92.2032 100.389 91.7818 100.367C90.781 100.315 90.7782 100.367 93.5935 95.0217L96.1124 90.2942L95.7812 85.5231L95.4501 80.752L93.6905 84.0932C92.7484 85.9453 91.0443 89.2365 89.9276 91.3964C88.6363 93.8641 87.7218 95.1896 87.4223 94.857C86.7234 94.0809 95.3109 78.3679 96.3644 78.423C96.8385 78.4479 97.9226 78.9272 98.735 79.5508ZM96.5508 80.9153C96.612 81.7636 96.8566 84.1533 97.1177 86.227L97.4957 90.1026L99.392 90.2019C101.288 90.3012 103.797 88.7952 103.863 87.531C103.907 86.6882 97.8368 79.5566 97.0467 79.5152C96.6253 79.4931 96.4397 80.0116 96.5508 80.9153ZM103.423 90.8884C103.565 91.2128 103.972 91.4982 104.288 91.5148C104.604 91.5313 104.621 91.2153 104.224 90.7191C103.534 89.785 102.891 89.9626 103.423 90.8884ZM102.85 92.7599C103.704 94.6005 104.514 95.2768 104.572 94.1706C104.613 93.3805 102.555 90.3148 102.223 90.6143C102.056 90.764 102.323 91.7287 102.85 92.7599ZM101.653 94.4402C102.052 94.8837 102.997 93.9825 102.709 93.4392C102.514 93.1121 102.248 93.151 101.91 93.5558C101.68 93.9135 101.553 94.3294 101.653 94.4402ZM102.878 96.2475C103.358 97.1706 104.384 97.7525 104.423 97.015C104.464 96.2249 103.385 94.6366 102.897 94.8752C102.623 95.0721 102.598 95.5462 102.878 96.2475ZM104.503 95.4875C104.495 95.6455 104.594 95.7564 104.752 95.7646C104.91 95.7729 105.021 95.6731 105.03 95.5151C105.038 95.357 104.938 95.2462 104.78 95.2379C104.622 95.2296 104.511 95.3294 104.503 95.4875ZM101.756 97.5092C101.734 97.9306 101.934 98.1523 102.258 98.0109C102.529 97.8666 102.812 97.5117 102.829 97.1956C102.843 96.9323 102.59 96.7078 102.327 96.694C102.011 96.6774 101.781 97.0351 101.756 97.5092Z" fill="black"/>
</g>
<path d="M154.106 68.8071C155.248 69.554 157.074 71.9583 157.221 72.818C157.283 73.206 157.444 73.819 157.562 74.1825C157.68 74.546 157.751 75.2918 157.723 75.8399C157.692 76.4155 157.824 77.0545 157.978 77.255C158.265 77.5449 158.202 77.7065 157.664 78.0081C157.322 78.2375 157.028 78.6069 157.017 78.8262C156.998 79.1825 156.916 79.1782 156.682 78.9186C156.422 78.6301 156.22 78.812 155.68 79.6906L155.015 80.8376L155.142 77.876L155.296 74.9433L154.227 74.8873C153.186 74.8328 153.129 74.8573 152.212 76.6232C151.695 77.5855 151.17 78.6849 151.069 79.0369C150.942 79.36 150.707 79.65 150.488 79.6385C149.967 79.6113 149.966 79.6387 151.431 76.8571L152.741 74.3972L152.569 71.9147L152.397 69.4321L151.481 71.1706C150.991 72.1344 150.104 73.8469 149.523 74.9708C148.851 76.2548 148.375 76.9444 148.219 76.7714C147.856 76.3675 152.324 68.1916 152.872 68.2203C153.119 68.2332 153.683 68.4826 154.106 68.8071ZM152.969 69.5171C153.001 69.9585 153.128 71.2019 153.264 72.2809L153.461 74.2975L154.448 74.3492C155.434 74.4009 156.74 73.6173 156.774 72.9595C156.797 72.5209 153.638 68.8101 153.227 68.7886C153.008 68.7771 152.911 69.0468 152.969 69.5171ZM156.545 74.7064C156.619 74.8752 156.831 75.0237 156.995 75.0323C157.16 75.0409 157.168 74.8765 156.962 74.6183C156.603 74.1323 156.268 74.2247 156.545 74.7064ZM156.247 75.6802C156.691 76.6379 157.113 76.9898 157.143 76.4142C157.164 76.0031 156.094 74.4079 155.921 74.5638C155.834 74.6417 155.973 75.1437 156.247 75.6802ZM155.624 76.5545C155.832 76.7853 156.323 76.3163 156.173 76.0336C156.072 75.8635 155.934 75.8837 155.758 76.0943C155.638 76.2805 155.572 76.4969 155.624 76.5545ZM156.262 77.4949C156.511 77.9752 157.045 78.278 157.065 77.8943C157.087 77.4832 156.525 76.6567 156.272 76.7809C156.129 76.8833 156.116 77.13 156.262 77.4949ZM157.107 77.0994C157.103 77.1817 157.155 77.2394 157.237 77.2437C157.319 77.248 157.377 77.196 157.381 77.1138C157.385 77.0316 157.333 76.9739 157.251 76.9696C157.169 76.9653 157.111 77.0172 157.107 77.0994ZM155.678 78.1514C155.666 78.3707 155.77 78.4861 155.939 78.4124C156.08 78.3374 156.227 78.1527 156.236 77.9883C156.243 77.8512 156.112 77.7344 155.975 77.7272C155.81 77.7186 155.691 77.9047 155.678 78.1514Z" fill="black"/>
<g filter="url(#filter2_f_23_4438)">
<path d="M154.106 68.8071C155.248 69.554 157.074 71.9583 157.221 72.818C157.283 73.206 157.444 73.819 157.562 74.1825C157.68 74.546 157.751 75.2918 157.723 75.8399C157.692 76.4155 157.824 77.0545 157.978 77.255C158.265 77.5449 158.202 77.7065 157.664 78.0081C157.322 78.2375 157.028 78.6069 157.017 78.8262C156.998 79.1825 156.916 79.1782 156.682 78.9186C156.422 78.6301 156.22 78.812 155.68 79.6906L155.015 80.8376L155.142 77.876L155.296 74.9433L154.227 74.8873C153.186 74.8328 153.129 74.8573 152.212 76.6232C151.695 77.5855 151.17 78.6849 151.069 79.0369C150.942 79.36 150.707 79.65 150.488 79.6385C149.967 79.6113 149.966 79.6387 151.431 76.8571L152.741 74.3972L152.569 71.9147L152.397 69.4321L151.481 71.1706C150.991 72.1344 150.104 73.8469 149.523 74.9708C148.851 76.2548 148.375 76.9444 148.219 76.7714C147.856 76.3675 152.324 68.1916 152.872 68.2203C153.119 68.2332 153.683 68.4826 154.106 68.8071ZM152.969 69.5171C153.001 69.9585 153.128 71.2019 153.264 72.2809L153.461 74.2975L154.448 74.3492C155.434 74.4009 156.74 73.6173 156.774 72.9595C156.797 72.5209 153.638 68.8101 153.227 68.7886C153.008 68.7771 152.911 69.0468 152.969 69.5171ZM156.545 74.7064C156.619 74.8752 156.831 75.0237 156.995 75.0323C157.16 75.0409 157.168 74.8765 156.962 74.6183C156.603 74.1323 156.268 74.2247 156.545 74.7064ZM156.247 75.6802C156.691 76.6379 157.113 76.9898 157.143 76.4142C157.164 76.0031 156.094 74.4079 155.921 74.5638C155.834 74.6417 155.973 75.1437 156.247 75.6802ZM155.624 76.5545C155.832 76.7853 156.323 76.3163 156.173 76.0336C156.072 75.8635 155.934 75.8837 155.758 76.0943C155.638 76.2805 155.572 76.4969 155.624 76.5545ZM156.262 77.4949C156.511 77.9752 157.045 78.278 157.065 77.8943C157.087 77.4832 156.525 76.6567 156.272 76.7809C156.129 76.8833 156.116 77.13 156.262 77.4949ZM157.107 77.0994C157.103 77.1817 157.155 77.2394 157.237 77.2437C157.319 77.248 157.377 77.196 157.381 77.1138C157.385 77.0316 157.333 76.9739 157.251 76.9696C157.169 76.9653 157.111 77.0172 157.107 77.0994ZM155.678 78.1514C155.666 78.3707 155.77 78.4861 155.939 78.4124C156.08 78.3374 156.227 78.1527 156.236 77.9883C156.243 77.8512 156.112 77.7344 155.975 77.7272C155.81 77.7186 155.691 77.9047 155.678 78.1514Z" fill="black"/>
</g>
<path d="M114.814 48.4686C112.851 49.3832 109.442 52.7454 109.017 54.0619C108.831 54.657 108.441 55.5832 108.173 56.1272C107.905 56.6711 107.626 57.8259 107.547 58.693C107.464 59.6034 107.114 60.5769 106.826 60.8568C106.31 61.247 106.373 61.515 107.149 62.1101C107.634 62.5475 108.013 63.1938 107.981 63.5407C107.93 64.1043 108.06 64.1161 108.486 63.7613C108.959 63.3671 109.234 63.6982 109.885 65.1997L110.669 67.1506L111.138 62.4723L111.559 57.8334L113.25 57.9869C114.897 58.1365 114.98 58.1877 116.021 61.1672C116.616 62.7949 117.192 64.6393 117.271 65.2147C117.397 65.7507 117.701 66.2591 118.047 66.2906C118.871 66.3654 118.867 66.4087 117.196 61.711L115.693 57.5531L116.525 53.6945L117.356 49.836L118.401 52.7721C118.953 54.3958 119.958 57.2846 120.616 59.1803C121.381 61.3479 121.972 62.5381 122.256 62.3016C122.918 61.7498 117.75 47.9047 116.883 47.826C116.493 47.7905 115.551 48.0547 114.814 48.4686ZM116.438 49.84C116.288 50.5258 115.807 52.4492 115.35 54.1124L114.586 57.234L113.025 57.0923C111.464 56.9505 109.592 55.4255 109.687 54.385C109.75 53.6913 115.547 48.5789 116.197 48.6379C116.544 48.6694 116.635 49.1148 116.438 49.84ZM109.652 57.1793C109.498 57.4276 109.131 57.6129 108.871 57.5893C108.611 57.5657 108.635 57.3055 109.017 56.9468C109.691 56.2649 110.195 56.4856 109.652 57.1793ZM109.9 58.7755C108.986 60.1787 108.245 60.6359 108.328 59.7255C108.387 59.0752 110.428 56.8127 110.664 57.0964C110.783 57.2383 110.452 57.9951 109.9 58.7755ZM110.681 60.2888C110.302 60.6042 109.636 59.7569 109.936 59.347C110.133 59.1026 110.345 59.1656 110.574 59.5361C110.72 59.8553 110.775 60.21 110.681 60.2888ZM109.467 61.6211C108.966 62.3188 108.06 62.6736 108.115 62.0666C108.174 61.4163 109.242 60.2456 109.612 60.4978C109.813 60.6909 109.778 61.0811 109.467 61.6211ZM108.229 60.8094C108.217 60.9394 108.123 61.0182 107.993 61.0064C107.863 60.9946 107.784 60.9 107.796 60.77C107.807 60.6399 107.902 60.5611 108.032 60.5729C108.162 60.5847 108.241 60.6793 108.229 60.8094ZM110.235 62.7837C110.204 63.1305 110.015 63.2882 109.766 63.1345C109.561 62.9848 109.372 62.6616 109.396 62.4015C109.416 62.1847 109.648 62.031 109.865 62.0507C110.125 62.0743 110.271 62.3935 110.235 62.7837Z" fill="black"/>
<g filter="url(#filter3_f_23_4438)">
<path d="M114.814 48.4686C112.851 49.3832 109.442 52.7454 109.017 54.0619C108.831 54.657 108.441 55.5832 108.173 56.1272C107.905 56.6711 107.626 57.8259 107.547 58.693C107.464 59.6034 107.114 60.5769 106.826 60.8568C106.31 61.247 106.373 61.515 107.149 62.1101C107.634 62.5475 108.013 63.1938 107.981 63.5407C107.93 64.1043 108.06 64.1161 108.486 63.7613C108.959 63.3671 109.234 63.6982 109.885 65.1997L110.669 67.1506L111.138 62.4723L111.559 57.8334L113.25 57.9869C114.897 58.1365 114.98 58.1877 116.021 61.1672C116.616 62.7949 117.192 64.6393 117.271 65.2147C117.397 65.7507 117.701 66.2591 118.047 66.2906C118.871 66.3654 118.867 66.4087 117.196 61.711L115.693 57.5531L116.525 53.6945L117.356 49.836L118.401 52.7721C118.953 54.3958 119.958 57.2846 120.616 59.1803C121.381 61.3479 121.972 62.5381 122.256 62.3016C122.918 61.7498 117.75 47.9047 116.883 47.826C116.493 47.7905 115.551 48.0547 114.814 48.4686ZM116.438 49.84C116.288 50.5258 115.807 52.4492 115.35 54.1124L114.586 57.234L113.025 57.0923C111.464 56.9505 109.592 55.4255 109.687 54.385C109.75 53.6913 115.547 48.5789 116.197 48.6379C116.544 48.6694 116.635 49.1148 116.438 49.84ZM109.652 57.1793C109.498 57.4276 109.131 57.6129 108.871 57.5893C108.611 57.5657 108.635 57.3055 109.017 56.9468C109.691 56.2649 110.195 56.4856 109.652 57.1793ZM109.9 58.7755C108.986 60.1787 108.245 60.6359 108.328 59.7255C108.387 59.0752 110.428 56.8127 110.664 57.0964C110.783 57.2383 110.452 57.9951 109.9 58.7755ZM110.681 60.2888C110.302 60.6042 109.636 59.7569 109.936 59.347C110.133 59.1026 110.345 59.1656 110.574 59.5361C110.72 59.8553 110.775 60.21 110.681 60.2888ZM109.467 61.6211C108.966 62.3188 108.06 62.6736 108.115 62.0666C108.174 61.4163 109.242 60.2456 109.612 60.4978C109.813 60.6909 109.778 61.0811 109.467 61.6211ZM108.229 60.8094C108.217 60.9394 108.123 61.0182 107.993 61.0064C107.863 60.9946 107.784 60.9 107.796 60.77C107.807 60.6399 107.902 60.5611 108.032 60.5729C108.162 60.5847 108.241 60.6793 108.229 60.8094ZM110.235 62.7837C110.204 63.1305 110.015 63.2882 109.766 63.1345C109.561 62.9848 109.372 62.6616 109.396 62.4015C109.416 62.1847 109.648 62.031 109.865 62.0507C110.125 62.0743 110.271 62.3935 110.235 62.7837Z" fill="black"/>
</g>
<path fill-rule="evenodd" clip-rule="evenodd" d="M57.4317 81.1749L61.727 78.7933L62.1239 79.5092L57.8287 81.8908L57.4317 81.1749ZM57.5097 83.0036L57.1128 82.2877L57.8287 81.8908L58.2256 82.6066L57.5097 83.0036ZM59.8913 87.2988L57.5097 83.0036L56.7939 83.4005L59.1754 87.6957L59.8913 87.2988ZM61.0041 87.6177L60.6072 86.9019L59.8913 87.2988L60.2882 88.0146L61.0041 87.6177ZM65.2993 85.2362L65.6962 85.952L61.401 88.3336L61.0041 87.6177L65.2993 85.2362ZM65.6183 84.1234L66.0152 84.8392L65.2993 85.2362L64.9024 84.5203L65.6183 84.1234ZM63.2367 79.8281L63.9526 79.4312L66.3341 83.7264L65.6183 84.1234L63.2367 79.8281ZM63.2367 79.8281L62.8398 79.1123L62.1239 79.5092L62.5208 80.2251L63.2367 79.8281ZM59.8168 81.2564L60.5327 80.8595L60.9296 81.5753L62.0034 80.9799L62.4003 81.6958L61.3265 82.2912L60.6107 82.6881L60.2527 82.8866L60.6497 83.6025L62.0814 82.8086L62.7973 82.4117L63.1942 83.1275L63.5911 83.8434L63.988 84.5593L63.2722 84.9562L62.9142 85.1547L63.3112 85.8705L62.5953 86.2675L62.1984 85.5516L61.1246 86.147L60.7276 85.4311L61.8014 84.8357L62.5173 84.4388L62.8753 84.2403L62.4783 83.5245L61.0466 84.3183L60.3307 84.7152L59.9338 83.9994L59.5369 83.2835L59.1399 82.5676L59.8558 82.1707L60.2137 81.9722L59.8168 81.2564Z" fill="black"/>
<path fill-rule="evenodd" clip-rule="evenodd" d="M89.122 79.7577L93.121 82.0309L92.7421 82.6974L88.7432 80.4242L89.122 79.7577ZM87.6978 80.7118L88.0767 80.0453L88.7432 80.4242L88.3643 81.0907L87.6978 80.7118ZM85.4247 84.7108L87.6978 80.7118L87.0313 80.333L84.7582 84.3319L85.4247 84.7108ZM85.7123 85.7561L86.0911 85.0896L85.4247 84.7108L85.0458 85.3772L85.7123 85.7561ZM89.7112 88.0293L89.3323 88.6958L85.3334 86.4226L85.7123 85.7561L89.7112 88.0293ZM90.7565 87.7417L90.3777 88.4081L89.7112 88.0293L90.0901 87.3628L90.7565 87.7417ZM93.0297 83.7427L93.6962 84.1216L91.423 88.1205L90.7565 87.7417L93.0297 83.7427ZM93.0297 83.7427L93.4086 83.0762L92.7421 82.6974L92.3632 83.3639L93.0297 83.7427ZM90.22 81.7046L90.8864 82.0835L90.5076 82.75L91.5073 83.3183L91.1285 83.9847L90.1287 83.4164L89.4622 83.0376L89.129 82.8482L88.7501 83.5146L90.0831 84.2724L90.7496 84.6512L90.3707 85.3177L89.9919 85.9842L89.613 86.6507L88.9465 86.2718L88.6133 86.0824L88.2344 86.7489L87.5679 86.37L87.9468 85.7035L86.9471 85.1352L87.3259 84.4688L88.3257 85.037L88.9921 85.4159L89.3254 85.6053L89.7042 84.9388L88.3713 84.1811L87.7048 83.8023L88.0836 83.1358L88.4625 82.4693L88.8414 81.8028L89.5079 82.1817L89.8411 82.3711L90.22 81.7046Z" fill="black"/>
<path fill-rule="evenodd" clip-rule="evenodd" d="M104.849 89.3003L109.22 87.8691L109.459 88.5977L105.087 90.0289L104.849 89.3003ZM104.597 90.996L104.359 90.2674L105.087 90.0289L105.326 90.7575L104.597 90.996ZM106.028 95.3675L104.597 90.996L103.869 91.2345L105.3 95.6061L106.028 95.3675ZM106.996 95.8576L106.757 95.129L106.028 95.3675L106.267 96.0961L106.996 95.8576ZM111.367 94.4264L111.606 95.155L107.234 96.5862L106.996 95.8576L111.367 94.4264ZM111.857 93.4593L112.096 94.1879L111.367 94.4264L111.129 93.6978L111.857 93.4593ZM110.426 89.0877L111.155 88.8492L112.586 93.2208L111.857 93.4593L110.426 89.0877ZM110.426 89.0877L110.187 88.3592L109.459 88.5977L109.697 89.3263L110.426 89.0877ZM107.028 89.7968L107.757 89.5583L107.995 90.2869L109.088 89.9291L109.327 90.6577L108.234 91.0155L107.505 91.254L107.141 91.3733L107.379 92.1019L108.837 91.6248L109.565 91.3863L109.804 92.1149L110.042 92.8435L110.281 93.5721L109.552 93.8106L109.188 93.9299L109.426 94.6584L108.698 94.897L108.459 94.1684L107.366 94.5262L107.128 93.7976L108.221 93.4398L108.949 93.2013L109.314 93.082L109.075 92.3534L107.618 92.8305L106.889 93.069L106.651 92.3404L106.412 91.6118L106.174 90.8832L106.902 90.6447L107.267 90.5254L107.028 89.7968Z" fill="black"/>
<path fill-rule="evenodd" clip-rule="evenodd" d="M154.712 68.3875L156.848 66.5967L157.147 66.9527L155.01 68.7435L154.712 68.3875ZM154.953 69.3979L154.654 69.0419L155.01 68.7435L155.309 69.0995L154.953 69.3979ZM156.744 71.534L154.953 69.3979L154.597 69.6964L156.388 71.8324L156.744 71.534ZM157.398 71.5915L157.1 71.2355L156.744 71.534L157.042 71.89L157.398 71.5915ZM159.534 69.8007L159.833 70.1567L157.697 71.9475L157.398 71.5915L159.534 69.8007ZM159.592 69.1463L159.89 69.5023L159.534 69.8007L159.236 69.4447L159.592 69.1463ZM157.801 67.0102L158.157 66.7118L159.948 68.8478L159.592 69.1463L157.801 67.0102ZM157.801 67.0102L157.503 66.6542L157.147 66.9527L157.445 67.3087L157.801 67.0102ZM156.05 68.1753L156.406 67.8768L156.704 68.2329L157.238 67.7852L157.537 68.1412L157.003 68.5889L156.647 68.8873L156.469 69.0366L156.767 69.3926L157.479 68.7956L157.835 68.4972L158.134 68.8532L158.432 69.2092L158.731 69.5652L158.374 69.8637L158.196 70.0129L158.495 70.3689L158.139 70.6673L157.84 70.3113L157.306 70.759L157.008 70.403L157.542 69.9553L157.898 69.6569L158.076 69.5076L157.778 69.1516L157.066 69.7486L156.71 70.047L156.411 69.691L156.113 69.335L155.814 68.979L156.17 68.6805L156.348 68.5313L156.05 68.1753Z" fill="black"/>
<path fill-rule="evenodd" clip-rule="evenodd" d="M119.846 51.8651L124.014 50.6166L124.222 51.3112L120.054 52.5597L119.846 51.8651ZM119.568 53.4624L119.36 52.7678L120.054 52.5597L120.262 53.2543L119.568 53.4624ZM120.816 57.6301L119.568 53.4624L118.873 53.6705L120.122 57.8381L120.816 57.6301ZM121.719 58.1166L121.511 57.422L120.816 57.6301L121.024 58.3247L121.719 58.1166ZM125.887 56.8681L126.095 57.5627L121.927 58.8112L121.719 58.1166L125.887 56.8681ZM126.373 55.9654L126.581 56.66L125.887 56.8681L125.679 56.1735L126.373 55.9654ZM125.125 51.7977L125.819 51.5897L127.068 55.7573L126.373 55.9654L125.125 51.7977ZM125.125 51.7977L124.917 51.1031L124.222 51.3112L124.43 52.0058L125.125 51.7977ZM121.895 52.3868L122.59 52.1787L122.798 52.8733L123.84 52.5612L124.048 53.2558L123.006 53.5679L122.311 53.776L121.964 53.8801L122.172 54.5747L123.561 54.1585L124.256 53.9504L124.464 54.645L124.672 55.3397L124.88 56.0343L124.185 56.2423L123.838 56.3464L124.046 57.041L123.351 57.2491L123.143 56.5545L122.101 56.8666L121.893 56.172L122.935 55.8599L123.63 55.6518L123.977 55.5477L123.769 54.8531L122.38 55.2693L121.685 55.4774L121.477 54.7828L121.269 54.0881L121.061 53.3935L121.756 53.1855L122.103 53.0814L121.895 52.3868Z" fill="black"/>
<path d="M195.237 42.7942L190.026 46.1108C189.764 46.2775 189.447 46.3334 189.143 46.2661C188.84 46.1987 188.576 46.0137 188.409 45.7517C188.243 45.4897 188.187 45.1721 188.254 44.8689C188.321 44.5657 188.506 44.3017 188.768 44.1349L193.979 40.8178M196.836 38.5374C196.135 37.8498 195.295 37.3198 194.372 36.9827C193.45 36.6456 192.466 36.5093 191.487 36.5828C191.394 36.6166 191.312 36.675 191.249 36.7517C191.186 36.8285 191.145 36.9207 191.13 37.0188C191.115 37.1169 191.127 37.2172 191.164 37.3091C191.201 37.401 191.263 37.4812 191.342 37.5412C192.476 38.233 193.489 39.1062 194.341 40.126" stroke="black" stroke-width="1.10408" stroke-linecap="round" stroke-linejoin="round"/>
<path d="M197.994 38.4493C197.915 38.3282 197.792 38.2428 197.651 38.2115C197.51 38.1802 197.362 38.2054 197.24 38.2818L194.21 40.2104C194.089 40.2892 194.003 40.4123 193.972 40.5534C193.941 40.6945 193.966 40.8422 194.042 40.9649L195.132 42.6773C195.211 42.7984 195.334 42.8838 195.475 42.9151C195.617 42.9465 195.764 42.9212 195.887 42.8448L198.917 40.9163C199.038 40.8375 199.123 40.7143 199.154 40.5732C199.186 40.4322 199.161 40.2844 199.084 40.1618L197.994 38.4493Z" stroke="black" stroke-width="1.10408" stroke-linecap="round" stroke-linejoin="round"/>
<path d="M198.513 41.1721C198.839 42.0983 198.964 43.0835 198.879 44.0618C198.794 45.0401 198.501 45.989 198.02 46.845C197.95 46.915 197.862 46.9649 197.766 46.9893C197.67 47.0137 197.569 47.0118 197.474 46.9838C197.379 46.9558 197.293 46.9028 197.226 46.8302C197.158 46.7576 197.112 46.6682 197.091 46.5713C196.944 45.2507 196.582 43.963 196.018 42.7597" stroke="black" stroke-width="1.10408" stroke-linecap="round" stroke-linejoin="round"/>
<path d="M131.982 8.25744L124.406 15.4064L125.046 21.8084L125.687 28.1038L141.692 37.8135C171.995 56.0594 192.055 67.1562 194.829 67.1562C197.069 67.1562 219.157 56.6996 221.397 54.4589C221.824 54.1388 222.358 51.7913 222.678 49.5506C222.891 47.2032 223.425 44.429 223.851 43.362C224.278 42.295 224.492 41.3347 224.278 41.1213C222.358 39.6275 165.913 8.04404 161.431 6.01673C156.203 3.66931 145.106 0.89509 141.052 1.00179C140.198 1.10849 136.143 4.30951 131.982 8.25744ZM153.429 9.96465C178.29 23.3022 201.551 36.1063 203.472 37.4934C205.392 38.8806 205.285 39.3074 200.377 46.6697C197.603 50.9377 194.935 54.3522 194.615 54.3522C194.189 54.3522 192.908 53.712 191.841 52.8584C190.667 52.0047 183.945 48.2702 176.903 44.5357C169.861 40.8012 157.163 33.4388 148.734 28.3172C140.305 23.0888 131.982 18.394 130.275 17.8605C128.674 17.2203 127.287 16.4734 127.287 16.1533C127.287 15.2997 140.518 3.13581 141.158 3.45591C141.478 3.56261 147.027 6.55023 153.429 9.96465ZM165.913 10.2848C169.007 11.992 179.037 17.6471 188.107 22.8754C197.176 27.9971 207.099 33.6522 209.98 35.2527C214.675 37.9202 214.995 38.347 212.434 38.347C210.727 38.347 199.203 32.5852 184.265 24.3693C170.288 16.6868 156.737 9.32445 154.282 8.15074C151.828 6.97703 150.014 5.58992 150.335 5.16312C151.081 3.98941 159.297 6.65693 165.913 10.2848ZM131.769 20.8481C133.689 21.8084 142.119 26.8234 150.655 31.8383C159.297 36.9599 172.635 44.6424 180.424 48.9104C188.213 53.1785 194.935 57.3398 195.256 58.1934C195.576 59.047 195.469 60.9676 195.149 62.4614C194.615 64.4887 193.975 65.0222 192.588 64.4887C189.28 63.315 154.603 43.4687 140.945 34.9326C127.714 26.7167 127.287 26.3966 127.287 22.7687C127.287 18.6074 127.394 18.6074 131.769 20.8481ZM217.663 41.7615C221.077 42.7218 221.184 42.9352 220.544 47.2032C219.69 53.2852 219.37 54.3522 217.876 54.3522C217.129 54.3522 216.916 53.2852 217.129 51.7913C218.09 46.6697 216.596 46.3496 208.486 50.0841L200.911 53.6053V58.0867C200.911 60.6475 200.27 63.2083 199.417 63.8485C198.136 64.9155 197.816 64.382 197.176 60.7542C196.536 56.6996 196.856 55.7393 201.017 49.764C208.807 38.347 207.953 38.7739 217.663 41.7615ZM214.995 52.9651C214.035 58.0867 210.514 59.2604 210.514 54.5656C210.514 51.0444 211.261 50.0841 213.715 50.0841C215.102 50.0841 215.422 50.7243 214.995 52.9651ZM208.38 55.7393C208.38 58.5135 207.74 59.5805 205.712 60.5408C203.151 61.7145 203.045 61.6078 203.045 58.0867C203.045 55.7393 203.685 54.0321 204.965 53.3919C207.846 51.6846 208.38 52.0047 208.38 55.7393Z" fill="#FF30B3"/>
<path d="M144.896 12.3172C138.708 15.4115 138.388 16.4785 142.762 19.146C144.896 20.4264 146.71 21.3868 146.924 21.1733C148.524 19.3594 150.765 13.2775 150.338 12.1038C149.591 10.1832 148.844 10.1832 144.896 12.3172ZM148.631 14.878C148.631 16.2651 147.884 17.012 146.71 17.012C143.723 17.012 143.082 15.8383 145.217 14.2378C147.777 12.2105 148.631 12.4239 148.631 14.878Z" fill="#FF30B3"/>
<path d="M165.169 21.4906C158.66 23.7313 156.42 27.6792 160.261 29.8132C163.569 31.5204 164.316 31.2003 167.197 25.972C170.931 19.3566 170.931 19.4633 165.169 21.4906ZM164.209 26.1854C161.008 28.4261 159.514 27.8926 162.395 25.4385C163.782 24.2648 165.276 23.6246 165.596 24.0514C165.916 24.3715 165.276 25.3318 164.209 26.1854Z" fill="#FF30B3"/>
<path d="M180.11 32.3801C176.056 34.0874 173.708 36.8616 175.309 37.8219C175.949 38.2487 177.23 37.9286 178.083 37.1817C179.364 36.1147 179.47 36.2214 178.937 37.7152C177.976 40.1693 181.391 41.1296 183.738 38.9956C184.912 37.9286 185.979 35.7946 186.192 33.9807C186.726 30.4595 185.339 30.0327 180.11 32.3801ZM183.845 33.7673C183.738 35.6879 181.924 37.5018 181.284 36.3281C180.857 35.6879 180.857 34.6209 181.177 34.0874C181.924 32.8069 183.845 32.7002 183.845 33.7673Z" fill="#FF30B3"/>
<path d="M132.52 26.6109C134.974 28.745 136.894 29.3852 136.894 28.1048C136.894 26.931 133.267 24.5836 131.559 24.5836C130.492 24.5836 130.706 25.2238 132.52 26.6109Z" fill="#FF30B3"/>
<path d="M142.445 32.0504C142.979 33.7576 151.835 38.7725 151.835 37.3854C151.835 36.3184 144.152 30.8767 142.658 30.8767C142.338 30.8767 142.232 31.4102 142.445 32.0504Z" fill="#FF30B3"/>
<path d="M159.306 41.9827C159.946 42.8363 162.187 44.5435 164.321 45.8239C169.016 48.5981 168.482 46.144 163.574 42.8363C159.626 40.1688 157.385 39.742 159.306 41.9827Z" fill="#FF30B3"/>
<path d="M177.448 52.2175C177.448 53.4979 185.984 57.8726 186.838 57.1257C187.158 56.6989 186.518 55.7386 185.344 54.885C182.463 52.751 177.448 51.0438 177.448 52.2175Z" fill="#FF30B3"/>
<path d="M207.323 44.7494C207.323 45.2829 208.07 45.8164 208.924 45.8164C209.777 45.8164 210.524 45.2829 210.524 44.7494C210.524 44.1092 209.777 43.6824 208.924 43.6824C208.07 43.6824 207.323 44.1092 207.323 44.7494Z" fill="#FF30B3"/>
<path d="M109.477 32.9058C103.609 36.2135 94.2192 41.0151 88.6708 43.5759C83.2291 46.1367 78.0007 48.5908 77.1471 49.1243C76.2935 49.5511 71.492 52.2186 66.477 54.9929C61.4621 57.7671 54.4199 61.6083 50.6853 63.5289C46.9508 65.4495 43.1096 67.6902 42.256 68.4371C40.8689 69.6109 40.4421 69.6109 40.0153 68.4371C39.6951 67.3701 39.0549 67.4768 37.241 69.0774C35.2137 70.8913 7.36482 86.683 1.81638 89.1371C0.109168 89.884 -0.317635 90.6309 0.215869 92.1247C0.962774 94.152 1.06947 94.152 3.31019 91.9113C4.5906 90.6309 8.00502 88.3902 10.9926 86.8964C13.8736 85.4026 20.3823 81.7747 25.5039 78.7871C34.4668 73.4521 38.8415 72.5985 36.7075 76.4397C35.8539 78.0402 15.3674 88.9237 3.84369 93.9386C-2.34495 96.6061 -1.17124 98.2067 12.9133 106.209C18.9952 109.73 25.5039 113.358 27.3179 114.532C29.2385 115.599 39.9086 121.574 51.0054 127.656C62.209 133.845 71.8121 139.286 72.4523 139.82C73.1992 140.46 75.8667 139.393 79.9213 136.619C83.4425 134.378 90.2713 130.217 95.2862 127.443C110.331 118.907 118.547 114.105 134.766 104.502C149.063 95.9659 177.659 80.8144 182.034 79.534C183.314 79.1072 183.848 77.8268 183.848 74.7325C183.848 72.3851 184.168 69.8243 184.488 68.8639C184.915 67.6902 184.595 67.1567 183.314 67.1567C182.354 67.1567 177.126 64.1691 171.684 60.4346C166.349 56.8068 160.694 53.0722 159.093 52.2186C147.89 45.9233 121.001 29.0646 120.681 28.1043C120.468 27.4641 115.666 29.4914 109.477 32.9058ZM117.693 33.9728C117.693 36.6403 117.053 37.2805 112.145 39.4145C109.051 40.695 99.8744 45.0697 91.8718 49.1243C78.1074 55.9532 77.1471 56.2733 77.1471 54.0325C77.1471 52.0052 80.2414 50.0846 97.2069 41.3352C108.197 35.68 117.267 30.9852 117.48 30.9852C117.587 30.8785 117.693 32.2656 117.693 33.9728ZM130.071 36.9604C136.046 40.5883 138.607 42.829 138.82 44.4295C139.14 46.6702 138.287 46.3501 129.537 41.3352C123.028 37.6006 119.827 35.1465 119.827 33.8661C119.827 32.7991 120.254 31.9455 120.681 31.9455C121.215 31.9455 125.376 34.1862 130.071 36.9604ZM129.324 43.7893C144.689 52.7521 145.542 53.2856 159.627 62.5686C167.096 67.4768 173.178 71.9583 173.178 72.4918C173.178 73.3454 146.716 88.4969 145.222 88.4969C144.795 88.4969 139.034 91.8046 132.311 95.8592C125.589 100.021 117.8 104.395 114.919 105.676C107.984 108.77 108.731 108.343 91.7651 119.013C83.6559 124.028 76.1868 128.296 75.2265 128.403C74.2662 128.403 73.1992 128.83 72.8791 129.257C72.3456 129.897 54.5266 119.76 51.3255 116.986C50.3652 116.026 49.2982 115.599 48.9781 115.919C48.658 116.239 44.4967 114.318 39.6951 111.544C34.8936 108.877 30.6256 106.636 30.1988 106.636C29.772 106.636 28.8117 105.889 28.0648 105.036C27.3179 104.182 26.1442 103.435 25.2905 103.435C24.0101 103.435 9.92564 95.1123 9.92564 94.2587C9.92564 94.152 16.3277 90.6309 24.1168 86.5763C42.5761 76.8665 69.6781 62.5686 72.3456 60.9681C76.7203 58.4073 118.227 38.3475 119.187 38.3475C119.721 38.3475 124.202 40.8017 129.324 43.7893ZM148.103 47.9506C150.451 49.5511 154.398 52.1119 156.959 53.7124C159.413 55.2063 161.441 57.0202 161.441 57.5537C161.441 58.0872 162.081 58.3006 162.935 57.9805C163.788 57.6604 166.562 59.0475 169.123 60.9681C171.791 62.8887 175.312 65.5562 177.019 66.7299C179.473 68.6505 179.793 69.3975 178.833 70.4645C177.766 71.5315 175.952 70.7846 169.87 66.5165C165.602 63.6356 161.441 60.7547 160.48 60.2212C142.555 49.231 139.994 47.3104 140.847 45.1764C141.488 43.5759 141.701 43.6826 148.103 47.9506ZM75.0131 55.0996C75.0131 57.1269 73.4126 58.0872 52.7126 68.8639C45.457 72.7052 39.2683 75.5861 39.0549 75.266C37.3477 73.6655 41.0823 70.8913 54.3132 64.0624C62.4224 59.7944 69.9982 55.6331 71.1719 54.7795C74.0528 52.7521 75.0131 52.8588 75.0131 55.0996ZM180.54 75.3727C179.58 77.0799 175.205 79.9608 167.843 83.6954C161.654 86.7897 153.652 91.0577 150.024 93.085C143.942 96.6061 143.302 96.7128 143.302 94.7922C143.302 92.5515 144.155 92.018 163.575 81.0278C171.364 76.5464 175.525 74.7325 177.232 75.1593C179.046 75.5861 179.58 75.266 179.58 73.7722C179.58 71.3181 180.967 69.7176 181.5 71.4248C181.821 72.1717 181.287 73.8789 180.54 75.3727ZM141.168 95.8592C141.168 97.9933 135.086 102.261 119.294 111.331C110.971 116.026 110.758 116.132 110.224 113.785C109.691 111.758 110.971 110.691 120.574 105.356C126.656 101.941 133.378 97.9933 135.512 96.4994C140.314 93.2984 141.168 93.1917 141.168 95.8592ZM14.6205 100.127C18.2483 102.368 26.8911 107.17 33.9333 110.797C40.8689 114.425 47.2709 117.946 48.0178 118.586C49.2982 119.654 50.0451 123.708 48.8714 123.708C47.591 123.708 28.705 112.611 26.8911 110.797C25.9308 109.837 24.8637 109.197 24.5436 109.41C23.7967 110.157 4.2705 98.7402 3.73699 97.2463C2.88339 94.6855 8.11173 95.9659 14.6205 100.127ZM106.276 118.16C103.716 119.974 75.76 136.512 75.2265 136.512C75.0131 136.512 75.0131 135.339 75.2265 133.951C75.4399 131.817 78.6409 129.363 91.5517 121.574C106.49 112.611 107.557 112.078 107.877 114.318C108.197 115.812 107.557 117.306 106.276 118.16ZM62.8492 126.482C70.8518 131.284 72.8791 132.991 72.8791 134.912C72.8791 137.259 72.2389 137.046 62.209 131.284C53.6729 126.482 51.5389 124.882 51.5389 122.855C51.5389 121.574 51.859 120.507 52.1791 120.507C52.4992 120.507 57.3008 123.175 62.8492 126.482Z" fill="#FF30B3"/>
<path d="M194.237 42.7942L189.026 46.1108C188.764 46.2775 188.447 46.3334 188.143 46.2661C187.84 46.1987 187.576 46.0137 187.409 45.7517C187.243 45.4897 187.187 45.1721 187.254 44.8689C187.321 44.5657 187.506 44.3017 187.768 44.1349L192.979 40.8178M195.836 38.5374C195.135 37.8498 194.295 37.3198 193.372 36.9827C192.45 36.6456 191.466 36.5093 190.487 36.5828C190.394 36.6166 190.312 36.675 190.249 36.7517C190.186 36.8285 190.145 36.9207 190.13 37.0188C190.115 37.1169 190.127 37.2172 190.164 37.3091C190.201 37.401 190.263 37.4812 190.342 37.5412C191.476 38.233 192.489 39.1062 193.341 40.126" stroke="#FF30B3" stroke-width="1.10408" stroke-linecap="round" stroke-linejoin="round"/>
<path d="M196.994 38.4493C196.915 38.3282 196.792 38.2428 196.651 38.2115C196.51 38.1802 196.362 38.2054 196.24 38.2818L193.21 40.2104C193.089 40.2892 193.003 40.4123 192.972 40.5534C192.941 40.6945 192.966 40.8422 193.042 40.9649L194.132 42.6773C194.211 42.7984 194.334 42.8838 194.475 42.9151C194.617 42.9465 194.764 42.9212 194.887 42.8448L197.917 40.9163C198.038 40.8375 198.123 40.7143 198.154 40.5732C198.186 40.4322 198.161 40.2844 198.084 40.1618L196.994 38.4493Z" stroke="#FF30B3" stroke-width="1.10408" stroke-linecap="round" stroke-linejoin="round"/>
<path d="M197.513 41.1721C197.839 42.0983 197.964 43.0835 197.879 44.0618C197.794 45.0401 197.501 45.989 197.02 46.845C196.95 46.915 196.862 46.9649 196.766 46.9893C196.67 47.0137 196.569 47.0118 196.474 46.9838C196.379 46.9558 196.293 46.9028 196.226 46.8302C196.158 46.7576 196.112 46.6682 196.091 46.5713C195.944 45.2507 195.582 43.963 195.018 42.7597" stroke="#FF30B3" stroke-width="1.10408" stroke-linecap="round" stroke-linejoin="round"/>
<path d="M131.982 7.25744L124.406 14.4064L125.046 20.8084L125.687 27.1038L141.692 36.8135C171.995 55.0594 192.055 66.1562 194.829 66.1562C197.069 66.1562 219.157 55.6996 221.397 53.4589C221.824 53.1388 222.358 50.7913 222.678 48.5506C222.891 46.2032 223.425 43.429 223.851 42.362C224.278 41.295 224.492 40.3347 224.278 40.1213C222.358 38.6275 165.913 7.04404 161.431 5.01673C156.203 2.66931 145.106 -0.10491 141.052 0.00179073C140.198 0.108491 136.143 3.30951 131.982 7.25744ZM153.429 8.96465C178.29 22.3022 201.551 35.1063 203.472 36.4934C205.392 37.8806 205.285 38.3074 200.377 45.6697C197.603 49.9377 194.935 53.3522 194.615 53.3522C194.189 53.3522 192.908 52.712 191.841 51.8584C190.667 51.0047 183.945 47.2702 176.903 43.5357C169.861 39.8012 157.163 32.4388 148.734 27.3172C140.305 22.0888 131.982 17.394 130.275 16.8605C128.674 16.2203 127.287 15.4734 127.287 15.1533C127.287 14.2997 140.518 2.13581 141.158 2.45591C141.478 2.56261 147.027 5.55023 153.429 8.96465ZM165.913 9.28476C169.007 10.992 179.037 16.6471 188.107 21.8754C197.176 26.9971 207.099 32.6522 209.98 34.2527C214.675 36.9202 214.995 37.347 212.434 37.347C210.727 37.347 199.203 31.5852 184.265 23.3693C170.288 15.6868 156.737 8.32445 154.282 7.15074C151.828 5.97703 150.014 4.58992 150.335 4.16312C151.081 2.98941 159.297 5.65693 165.913 9.28476ZM131.769 19.8481C133.689 20.8084 142.119 25.8234 150.655 30.8383C159.297 35.9599 172.635 43.6424 180.424 47.9104C188.213 52.1785 194.935 56.3398 195.256 57.1934C195.576 58.047 195.469 59.9676 195.149 61.4614C194.615 63.4887 193.975 64.0222 192.588 63.4887C189.28 62.315 154.603 42.4687 140.945 33.9326C127.714 25.7167 127.287 25.3966 127.287 21.7687C127.287 17.6074 127.394 17.6074 131.769 19.8481ZM217.663 40.7615C221.077 41.7218 221.184 41.9352 220.544 46.2032C219.69 52.2852 219.37 53.3522 217.876 53.3522C217.129 53.3522 216.916 52.2852 217.129 50.7913C218.09 45.6697 216.596 45.3496 208.486 49.0841L200.911 52.6053V57.0867C200.911 59.6475 200.27 62.2083 199.417 62.8485C198.136 63.9155 197.816 63.382 197.176 59.7542C196.536 55.6996 196.856 54.7393 201.017 48.764C208.807 37.347 207.953 37.7739 217.663 40.7615ZM214.995 51.9651C214.035 57.0867 210.514 58.2604 210.514 53.5656C210.514 50.0444 211.261 49.0841 213.715 49.0841C215.102 49.0841 215.422 49.7243 214.995 51.9651ZM208.38 54.7393C208.38 57.5135 207.74 58.5805 205.712 59.5408C203.151 60.7145 203.045 60.6078 203.045 57.0867C203.045 54.7393 203.685 53.0321 204.965 52.3919C207.846 50.6846 208.38 51.0047 208.38 54.7393Z" fill="white"/>
<path d="M144.896 11.3172C138.708 14.4115 138.388 15.4785 142.762 18.146C144.896 19.4264 146.71 20.3868 146.924 20.1733C148.524 18.3594 150.765 12.2775 150.338 11.1038C149.591 9.18317 148.844 9.18317 144.896 11.3172ZM148.631 13.878C148.631 15.2651 147.884 16.012 146.71 16.012C143.723 16.012 143.082 14.8383 145.217 13.2378C147.777 11.2105 148.631 11.4239 148.631 13.878Z" fill="#FFB84D"/>
<path d="M165.169 20.4906C158.66 22.7313 156.42 26.6792 160.261 28.8132C163.569 30.5204 164.316 30.2003 167.197 24.972C170.931 18.3566 170.931 18.4633 165.169 20.4906ZM164.209 25.1854C161.008 27.4261 159.514 26.8926 162.395 24.4385C163.782 23.2648 165.276 22.6246 165.596 23.0514C165.916 23.3715 165.276 24.3318 164.209 25.1854Z" fill="#FFB84D"/>
<path d="M180.11 31.3801C176.056 33.0874 173.708 35.8616 175.309 36.8219C175.949 37.2487 177.23 36.9286 178.083 36.1817C179.364 35.1147 179.47 35.2214 178.937 36.7152C177.976 39.1693 181.391 40.1296 183.738 37.9956C184.912 36.9286 185.979 34.7946 186.192 32.9807C186.726 29.4595 185.339 29.0327 180.11 31.3801ZM183.845 32.7673C183.738 34.6879 181.924 36.5018 181.284 35.3281C180.857 34.6879 180.857 33.6209 181.177 33.0874C181.924 31.8069 183.845 31.7002 183.845 32.7673Z" fill="#FFB84D"/>
<path d="M132.52 25.6109C134.974 27.745 136.894 28.3852 136.894 27.1048C136.894 25.931 133.267 23.5836 131.559 23.5836C130.492 23.5836 130.706 24.2238 132.52 25.6109Z" fill="#FFB84D"/>
<path d="M142.445 31.0504C142.979 32.7576 151.835 37.7725 151.835 36.3854C151.835 35.3184 144.152 29.8767 142.658 29.8767C142.338 29.8767 142.232 30.4102 142.445 31.0504Z" fill="#FFB84D"/>
<path d="M159.306 40.9827C159.946 41.8363 162.187 43.5435 164.321 44.8239C169.016 47.5981 168.482 45.144 163.574 41.8363C159.626 39.1688 157.385 38.742 159.306 40.9827Z" fill="#FFB84D"/>
<path d="M177.448 51.2175C177.448 52.4979 185.984 56.8726 186.838 56.1257C187.158 55.6989 186.518 54.7386 185.344 53.885C182.463 51.751 177.448 50.0438 177.448 51.2175Z" fill="#FFB84D"/>
<path d="M207.323 43.7494C207.323 44.2829 208.07 44.8164 208.924 44.8164C209.777 44.8164 210.524 44.2829 210.524 43.7494C210.524 43.1092 209.777 42.6824 208.924 42.6824C208.07 42.6824 207.323 43.1092 207.323 43.7494Z" fill="white"/>
<path d="M109.477 31.9058C103.609 35.2135 94.2192 40.0151 88.6708 42.5759C83.2291 45.1367 78.0007 47.5908 77.1471 48.1243C76.2935 48.5511 71.492 51.2186 66.477 53.9929C61.4621 56.7671 54.4199 60.6083 50.6853 62.5289C46.9508 64.4495 43.1096 66.6902 42.256 67.4371C40.8689 68.6109 40.4421 68.6109 40.0153 67.4371C39.6951 66.3701 39.0549 66.4768 37.241 68.0774C35.2137 69.8913 7.36482 85.683 1.81638 88.1371C0.109168 88.884 -0.317635 89.6309 0.215869 91.1247C0.962774 93.152 1.06947 93.152 3.31019 90.9113C4.5906 89.6309 8.00502 87.3902 10.9926 85.8964C13.8736 84.4026 20.3823 80.7747 25.5039 77.7871C34.4668 72.4521 38.8415 71.5985 36.7075 75.4397C35.8539 77.0402 15.3674 87.9237 3.84369 92.9386C-2.34495 95.6061 -1.17124 97.2067 12.9133 105.209C18.9952 108.73 25.5039 112.358 27.3179 113.532C29.2385 114.599 39.9086 120.574 51.0054 126.656C62.209 132.845 71.8121 138.286 72.4523 138.82C73.1992 139.46 75.8667 138.393 79.9213 135.619C83.4425 133.378 90.2713 129.217 95.2862 126.443C110.331 117.907 118.547 113.105 134.766 103.502C149.063 94.9659 177.659 79.8144 182.034 78.534C183.314 78.1072 183.848 76.8268 183.848 73.7325C183.848 71.3851 184.168 68.8243 184.488 67.8639C184.915 66.6902 184.595 66.1567 183.314 66.1567C182.354 66.1567 177.126 63.1691 171.684 59.4346C166.349 55.8068 160.694 52.0722 159.093 51.2186C147.89 44.9233 121.001 28.0646 120.681 27.1043C120.468 26.4641 115.666 28.4914 109.477 31.9058ZM117.693 32.9728C117.693 35.6403 117.053 36.2805 112.145 38.4145C109.051 39.695 99.8744 44.0697 91.8718 48.1243C78.1074 54.9532 77.1471 55.2733 77.1471 53.0325C77.1471 51.0052 80.2414 49.0846 97.2069 40.3352C108.197 34.68 117.267 29.9852 117.48 29.9852C117.587 29.8785 117.693 31.2656 117.693 32.9728ZM130.071 35.9604C136.046 39.5883 138.607 41.829 138.82 43.4295C139.14 45.6702 138.287 45.3501 129.537 40.3352C123.028 36.6006 119.827 34.1465 119.827 32.8661C119.827 31.7991 120.254 30.9455 120.681 30.9455C121.215 30.9455 125.376 33.1862 130.071 35.9604ZM129.324 42.7893C144.689 51.7521 145.542 52.2856 159.627 61.5686C167.096 66.4768 173.178 70.9583 173.178 71.4918C173.178 72.3454 146.716 87.4969 145.222 87.4969C144.795 87.4969 139.034 90.8046 132.311 94.8592C125.589 99.0206 117.8 103.395 114.919 104.676C107.984 107.77 108.731 107.343 91.7651 118.013C83.6559 123.028 76.1868 127.296 75.2265 127.403C74.2662 127.403 73.1992 127.83 72.8791 128.257C72.3456 128.897 54.5266 118.76 51.3255 115.986C50.3652 115.026 49.2982 114.599 48.9781 114.919C48.658 115.239 44.4967 113.318 39.6951 110.544C34.8936 107.877 30.6256 105.636 30.1988 105.636C29.772 105.636 28.8117 104.889 28.0648 104.036C27.3179 103.182 26.1442 102.435 25.2905 102.435C24.0101 102.435 9.92564 94.1123 9.92564 93.2587C9.92564 93.152 16.3277 89.6309 24.1168 85.5763C42.5761 75.8665 69.6781 61.5686 72.3456 59.9681C76.7203 57.4073 118.227 37.3475 119.187 37.3475C119.721 37.3475 124.202 39.8017 129.324 42.7893ZM148.103 46.9506C150.451 48.5511 154.398 51.1119 156.959 52.7124C159.413 54.2063 161.441 56.0202 161.441 56.5537C161.441 57.0872 162.081 57.3006 162.935 56.9805C163.788 56.6604 166.562 58.0475 169.123 59.9681C171.791 61.8887 175.312 64.5562 177.019 65.7299C179.473 67.6505 179.793 68.3975 178.833 69.4645C177.766 70.5315 175.952 69.7846 169.87 65.5165C165.602 62.6356 161.441 59.7547 160.48 59.2212C142.555 48.231 139.994 46.3104 140.847 44.1764C141.488 42.5759 141.701 42.6826 148.103 46.9506ZM75.0131 54.0996C75.0131 56.1269 73.4126 57.0872 52.7126 67.8639C45.457 71.7052 39.2683 74.5861 39.0549 74.266C37.3477 72.6655 41.0823 69.8913 54.3132 63.0624C62.4224 58.7944 69.9982 54.6331 71.1719 53.7795C74.0528 51.7521 75.0131 51.8588 75.0131 54.0996ZM180.54 74.3727C179.58 76.0799 175.205 78.9608 167.843 82.6954C161.654 85.7897 153.652 90.0577 150.024 92.085C143.942 95.6061 143.302 95.7128 143.302 93.7922C143.302 91.5515 144.155 91.018 163.575 80.0278C171.364 75.5464 175.525 73.7325 177.232 74.1593C179.046 74.5861 179.58 74.266 179.58 72.7722C179.58 70.3181 180.967 68.7176 181.5 70.4248C181.821 71.1717 181.287 72.8789 180.54 74.3727ZM141.168 94.8592C141.168 96.9933 135.086 101.261 119.294 110.331C110.971 115.026 110.758 115.132 110.224 112.785C109.691 110.758 110.971 109.691 120.574 104.356C126.656 100.941 133.378 96.9933 135.512 95.4994C140.314 92.2984 141.168 92.1917 141.168 94.8592ZM14.6205 99.1273C18.2483 101.368 26.8911 106.17 33.9333 109.797C40.8689 113.425 47.2709 116.946 48.0178 117.586C49.2982 118.654 50.0451 122.708 48.8714 122.708C47.591 122.708 28.705 111.611 26.8911 109.797C25.9308 108.837 24.8637 108.197 24.5436 108.41C23.7967 109.157 4.2705 97.7402 3.73699 96.2463C2.88339 93.6855 8.11173 94.9659 14.6205 99.1273ZM106.276 117.16C103.716 118.974 75.76 135.512 75.2265 135.512C75.0131 135.512 75.0131 134.339 75.2265 132.951C75.4399 130.817 78.6409 128.363 91.5517 120.574C106.49 111.611 107.557 111.078 107.877 113.318C108.197 114.812 107.557 116.306 106.276 117.16ZM62.8492 125.482C70.8518 130.284 72.8791 131.991 72.8791 133.912C72.8791 136.259 72.2389 136.046 62.209 130.284C53.6729 125.482 51.5389 123.882 51.5389 121.855C51.5389 120.574 51.859 119.507 52.1791 119.507C52.4992 119.507 57.3008 122.175 62.8492 125.482Z" fill="white"/>
<path d="M47.97 74.5034C44.5632 76.4841 38.938 83.1393 38.3834 85.5953C38.1457 86.7045 37.5911 88.4475 37.1949 89.4775C36.7988 90.5075 36.4819 92.6466 36.4819 94.2312C36.4819 95.895 36.0065 97.7172 35.5312 98.2718C34.6596 99.0641 34.8181 99.5395 36.3234 100.49C37.2742 101.203 38.0665 102.312 38.0665 102.946C38.0665 103.976 38.3041 103.976 39.0172 103.263C39.8095 102.471 40.3641 103.026 41.7902 105.64L43.5332 109.047L43.6124 100.49V92.0128H46.7023C49.713 92.0128 49.8715 92.092 52.2483 97.3211C53.5952 100.173 54.9421 103.422 55.1797 104.452C55.4967 105.402 56.1305 106.274 56.7643 106.274C58.2696 106.274 58.2696 106.353 54.4667 98.1134L51.0599 90.8244L51.9314 83.6939L52.8029 76.5633L55.1797 81.7131C56.4474 84.5654 58.745 89.636 60.2503 92.9636C61.9934 96.7665 63.261 98.8264 63.7364 98.3511C64.8456 97.2419 53.199 72.998 51.6145 72.998C50.9014 72.998 49.2376 73.6319 47.97 74.5034ZM51.1391 76.7218C50.9807 77.9894 50.4261 81.5547 49.8715 84.6446L48.9999 90.4282H46.1477C43.2955 90.4282 39.651 87.9722 39.651 86.0707C39.651 84.803 49.3169 74.5826 50.5053 74.5826C51.1391 74.5826 51.3768 75.3749 51.1391 76.7218ZM40.0472 91.1413C39.8095 91.6167 39.1756 92.0128 38.7003 92.0128C38.2249 92.0128 38.2249 91.5374 38.8587 90.8244C39.9679 89.4775 40.9187 89.7944 40.0472 91.1413ZM40.7602 93.9935C39.3341 96.6873 38.0665 97.638 38.0665 95.9742C38.0665 94.7858 41.394 90.349 41.8694 90.8244C42.1071 91.0621 41.6317 92.4882 40.7602 93.9935ZM42.424 96.608C41.7902 97.2419 40.4433 95.8158 40.9187 95.0235C41.2356 94.5481 41.6317 94.6273 42.1071 95.2612C42.424 95.8158 42.5825 96.4496 42.424 96.608ZM40.4433 99.2226C39.651 100.569 38.0665 101.362 38.0665 100.253C38.0665 99.0641 39.8095 96.7665 40.5225 97.1626C40.9187 97.4796 40.9187 98.1926 40.4433 99.2226ZM38.0665 97.9549C38.0665 98.1926 37.908 98.3511 37.6703 98.3511C37.4326 98.3511 37.2742 98.1926 37.2742 97.9549C37.2742 97.7172 37.4326 97.5588 37.6703 97.5588C37.908 97.5588 38.0665 97.7172 38.0665 97.9549ZM42.0279 101.203C42.0279 101.837 41.711 102.154 41.2356 101.916C40.8394 101.679 40.4433 101.124 40.4433 100.649C40.4433 100.253 40.8394 99.9356 41.2356 99.9356C41.711 99.9356 42.0279 100.49 42.0279 101.203Z" fill="#FF30B3"/>
<g filter="url(#filter4_f_23_4438)">
<path d="M47.97 74.5034C44.5632 76.4841 38.938 83.1393 38.3834 85.5953C38.1457 86.7045 37.5911 88.4475 37.1949 89.4775C36.7988 90.5075 36.4819 92.6466 36.4819 94.2312C36.4819 95.895 36.0065 97.7172 35.5312 98.2718C34.6596 99.0641 34.8181 99.5395 36.3234 100.49C37.2742 101.203 38.0665 102.312 38.0665 102.946C38.0665 103.976 38.3041 103.976 39.0172 103.263C39.8095 102.471 40.3641 103.026 41.7902 105.64L43.5332 109.047L43.6124 100.49V92.0128H46.7023C49.713 92.0128 49.8715 92.092 52.2483 97.3211C53.5952 100.173 54.9421 103.422 55.1797 104.452C55.4967 105.402 56.1305 106.274 56.7643 106.274C58.2696 106.274 58.2696 106.353 54.4667 98.1134L51.0599 90.8244L51.9314 83.6939L52.8029 76.5633L55.1797 81.7131C56.4474 84.5654 58.745 89.636 60.2503 92.9636C61.9934 96.7665 63.261 98.8264 63.7364 98.3511C64.8456 97.2419 53.199 72.998 51.6145 72.998C50.9014 72.998 49.2376 73.6319 47.97 74.5034ZM51.1391 76.7218C50.9807 77.9894 50.4261 81.5547 49.8715 84.6446L48.9999 90.4282H46.1477C43.2955 90.4282 39.651 87.9722 39.651 86.0707C39.651 84.803 49.3169 74.5826 50.5053 74.5826C51.1391 74.5826 51.3768 75.3749 51.1391 76.7218ZM40.0472 91.1413C39.8095 91.6167 39.1756 92.0128 38.7003 92.0128C38.2249 92.0128 38.2249 91.5374 38.8587 90.8244C39.9679 89.4775 40.9187 89.7944 40.0472 91.1413ZM40.7602 93.9935C39.3341 96.6873 38.0665 97.638 38.0665 95.9742C38.0665 94.7858 41.394 90.349 41.8694 90.8244C42.1071 91.0621 41.6317 92.4882 40.7602 93.9935ZM42.424 96.608C41.7902 97.2419 40.4433 95.8158 40.9187 95.0235C41.2356 94.5481 41.6317 94.6273 42.1071 95.2612C42.424 95.8158 42.5825 96.4496 42.424 96.608ZM40.4433 99.2226C39.651 100.569 38.0665 101.362 38.0665 100.253C38.0665 99.0641 39.8095 96.7665 40.5225 97.1626C40.9187 97.4796 40.9187 98.1926 40.4433 99.2226ZM38.0665 97.9549C38.0665 98.1926 37.908 98.3511 37.6703 98.3511C37.4326 98.3511 37.2742 98.1926 37.2742 97.9549C37.2742 97.7172 37.4326 97.5588 37.6703 97.5588C37.908 97.5588 38.0665 97.7172 38.0665 97.9549ZM42.0279 101.203C42.0279 101.837 41.711 102.154 41.2356 101.916C40.8394 101.679 40.4433 101.124 40.4433 100.649C40.4433 100.253 40.8394 99.9356 41.2356 99.9356C41.711 99.9356 42.0279 100.49 42.0279 101.203Z" fill="#FF30B3"/>
</g>
<path d="M97.735 78.5508C99.9311 79.9863 103.439 84.6069 103.722 86.2591C103.842 87.0048 104.15 88.183 104.377 88.8816C104.605 89.5801 104.741 91.0134 104.686 92.0669C104.628 93.1731 104.881 94.4012 105.177 94.7864C105.729 95.3435 105.607 95.6541 104.573 96.2338C103.916 96.6747 103.351 97.3846 103.329 97.806C103.293 98.4908 103.135 98.4825 102.686 97.9836C102.187 97.4292 101.799 97.7787 100.759 99.4673L99.482 101.672L99.7272 95.9799L100.022 90.3437L97.9681 90.2361C95.9665 90.1313 95.8584 90.1784 94.096 93.5722C93.1012 95.4216 92.0926 97.5344 91.8987 98.2109C91.6549 98.832 91.2032 99.3893 90.7818 99.3672C89.781 99.3148 89.7782 99.3675 92.5935 94.0217L95.1124 89.2942L94.7812 84.5231L94.4501 79.752L92.6905 83.0932C91.7484 84.9453 90.0443 88.2365 88.9276 90.3964C87.6363 92.8641 86.7218 94.1896 86.4223 93.857C85.7234 93.0809 94.3109 77.3679 95.3644 77.423C95.8385 77.4479 96.9226 77.9272 97.735 78.5508ZM95.5508 79.9153C95.612 80.7636 95.8566 83.1533 96.1177 85.227L96.4957 89.1026L98.392 89.2019C100.288 89.3012 102.797 87.7952 102.863 86.531C102.907 85.6882 96.8368 78.5566 96.0467 78.5152C95.6253 78.4931 95.4397 79.0116 95.5508 79.9153ZM102.423 89.8884C102.565 90.2128 102.972 90.4982 103.288 90.5148C103.604 90.5313 103.621 90.2153 103.224 89.7191C102.534 88.785 101.891 88.9626 102.423 89.8884ZM101.85 91.7599C102.704 93.6005 103.514 94.2768 103.572 93.1706C103.613 92.3805 101.555 89.3148 101.223 89.6143C101.056 89.764 101.323 90.7287 101.85 91.7599ZM100.653 93.4402C101.052 93.8837 101.997 92.9825 101.709 92.4392C101.514 92.1121 101.248 92.151 100.91 92.5558C100.68 92.9135 100.553 93.3294 100.653 93.4402ZM101.878 95.2475C102.358 96.1706 103.384 96.7525 103.423 96.015C103.464 95.2249 102.385 93.6366 101.897 93.8752C101.623 94.0721 101.598 94.5462 101.878 95.2475ZM103.503 94.4875C103.495 94.6455 103.594 94.7564 103.752 94.7646C103.91 94.7729 104.021 94.6731 104.03 94.5151C104.038 94.357 103.938 94.2462 103.78 94.2379C103.622 94.2296 103.511 94.3294 103.503 94.4875ZM100.756 96.5092C100.734 96.9306 100.934 97.1523 101.258 97.0109C101.529 96.8666 101.812 96.5117 101.829 96.1956C101.843 95.9323 101.59 95.7078 101.327 95.694C101.011 95.6774 100.781 96.0351 100.756 96.5092Z" fill="#FF30B3"/>
<g filter="url(#filter5_f_23_4438)">
<path d="M97.735 78.5508C99.9311 79.9863 103.439 84.6069 103.722 86.2591C103.842 87.0048 104.15 88.183 104.377 88.8816C104.605 89.5801 104.741 91.0134 104.686 92.0669C104.628 93.1731 104.881 94.4012 105.177 94.7864C105.729 95.3435 105.607 95.6541 104.573 96.2338C103.916 96.6747 103.351 97.3846 103.329 97.806C103.293 98.4908 103.135 98.4825 102.686 97.9836C102.187 97.4292 101.799 97.7787 100.759 99.4673L99.482 101.672L99.7272 95.9799L100.022 90.3437L97.9681 90.2361C95.9665 90.1313 95.8584 90.1784 94.096 93.5722C93.1012 95.4216 92.0926 97.5344 91.8987 98.2109C91.6549 98.832 91.2032 99.3893 90.7818 99.3672C89.781 99.3148 89.7782 99.3675 92.5935 94.0217L95.1124 89.2942L94.7812 84.5231L94.4501 79.752L92.6905 83.0932C91.7484 84.9453 90.0443 88.2365 88.9276 90.3964C87.6363 92.8641 86.7218 94.1896 86.4223 93.857C85.7234 93.0809 94.3109 77.3679 95.3644 77.423C95.8385 77.4479 96.9226 77.9272 97.735 78.5508ZM95.5508 79.9153C95.612 80.7636 95.8566 83.1533 96.1177 85.227L96.4957 89.1026L98.392 89.2019C100.288 89.3012 102.797 87.7952 102.863 86.531C102.907 85.6882 96.8368 78.5566 96.0467 78.5152C95.6253 78.4931 95.4397 79.0116 95.5508 79.9153ZM102.423 89.8884C102.565 90.2128 102.972 90.4982 103.288 90.5148C103.604 90.5313 103.621 90.2153 103.224 89.7191C102.534 88.785 101.891 88.9626 102.423 89.8884ZM101.85 91.7599C102.704 93.6005 103.514 94.2768 103.572 93.1706C103.613 92.3805 101.555 89.3148 101.223 89.6143C101.056 89.764 101.323 90.7287 101.85 91.7599ZM100.653 93.4402C101.052 93.8837 101.997 92.9825 101.709 92.4392C101.514 92.1121 101.248 92.151 100.91 92.5558C100.68 92.9135 100.553 93.3294 100.653 93.4402ZM101.878 95.2475C102.358 96.1706 103.384 96.7525 103.423 96.015C103.464 95.2249 102.385 93.6366 101.897 93.8752C101.623 94.0721 101.598 94.5462 101.878 95.2475ZM103.503 94.4875C103.495 94.6455 103.594 94.7564 103.752 94.7646C103.91 94.7729 104.021 94.6731 104.03 94.5151C104.038 94.357 103.938 94.2462 103.78 94.2379C103.622 94.2296 103.511 94.3294 103.503 94.4875ZM100.756 96.5092C100.734 96.9306 100.934 97.1523 101.258 97.0109C101.529 96.8666 101.812 96.5117 101.829 96.1956C101.843 95.9323 101.59 95.7078 101.327 95.694C101.011 95.6774 100.781 96.0351 100.756 96.5092Z" fill="#FF30B3"/>
</g>
<path d="M153.106 67.8071C154.248 68.554 156.074 70.9583 156.221 71.818C156.283 72.206 156.444 72.819 156.562 73.1825C156.68 73.546 156.751 74.2918 156.723 74.8399C156.692 75.4155 156.824 76.0545 156.978 76.255C157.265 76.5449 157.202 76.7065 156.664 77.0081C156.322 77.2375 156.028 77.6069 156.017 77.8262C155.998 78.1825 155.916 78.1782 155.682 77.9186C155.422 77.6301 155.22 77.812 154.68 78.6906L154.015 79.8376L154.142 76.876L154.296 73.9433L153.227 73.8873C152.186 73.8328 152.129 73.8573 151.212 75.6232C150.695 76.5855 150.17 77.6849 150.069 78.0369C149.942 78.36 149.707 78.65 149.488 78.6385C148.967 78.6113 148.966 78.6387 150.431 75.8571L151.741 73.3972L151.569 70.9147L151.397 68.4321L150.481 70.1706C149.991 71.1344 149.104 72.8469 148.523 73.9708C147.851 75.2548 147.375 75.9444 147.219 75.7714C146.856 75.3675 151.324 67.1916 151.872 67.2203C152.119 67.2332 152.683 67.4826 153.106 67.8071ZM151.969 68.5171C152.001 68.9585 152.128 70.2019 152.264 71.2809L152.461 73.2975L153.448 73.3492C154.434 73.4009 155.74 72.6173 155.774 71.9595C155.797 71.5209 152.638 67.8101 152.227 67.7886C152.008 67.7771 151.911 68.0468 151.969 68.5171ZM155.545 73.7064C155.619 73.8752 155.831 74.0237 155.995 74.0323C156.16 74.0409 156.168 73.8765 155.962 73.6183C155.603 73.1323 155.268 73.2247 155.545 73.7064ZM155.247 74.6802C155.691 75.6379 156.113 75.9898 156.143 75.4142C156.164 75.0031 155.094 73.4079 154.921 73.5638C154.834 73.6417 154.973 74.1437 155.247 74.6802ZM154.624 75.5545C154.832 75.7853 155.323 75.3163 155.173 75.0336C155.072 74.8635 154.934 74.8837 154.758 75.0943C154.638 75.2805 154.572 75.4969 154.624 75.5545ZM155.262 76.4949C155.511 76.9752 156.045 77.278 156.065 76.8943C156.087 76.4832 155.525 75.6567 155.272 75.7809C155.129 75.8833 155.116 76.13 155.262 76.4949ZM156.107 76.0994C156.103 76.1817 156.155 76.2394 156.237 76.2437C156.319 76.248 156.377 76.196 156.381 76.1138C156.385 76.0316 156.333 75.9739 156.251 75.9696C156.169 75.9653 156.111 76.0172 156.107 76.0994ZM154.678 77.1514C154.666 77.3707 154.77 77.4861 154.939 77.4124C155.08 77.3374 155.227 77.1527 155.236 76.9883C155.243 76.8512 155.112 76.7344 154.975 76.7272C154.81 76.7186 154.691 76.9047 154.678 77.1514Z" fill="#FF30B3"/>
<g filter="url(#filter6_f_23_4438)">
<path d="M153.106 67.8071C154.248 68.554 156.074 70.9583 156.221 71.818C156.283 72.206 156.444 72.819 156.562 73.1825C156.68 73.546 156.751 74.2918 156.723 74.8399C156.692 75.4155 156.824 76.0545 156.978 76.255C157.265 76.5449 157.202 76.7065 156.664 77.0081C156.322 77.2375 156.028 77.6069 156.017 77.8262C155.998 78.1825 155.916 78.1782 155.682 77.9186C155.422 77.6301 155.22 77.812 154.68 78.6906L154.015 79.8376L154.142 76.876L154.296 73.9433L153.227 73.8873C152.186 73.8328 152.129 73.8573 151.212 75.6232C150.695 76.5855 150.17 77.6849 150.069 78.0369C149.942 78.36 149.707 78.65 149.488 78.6385C148.967 78.6113 148.966 78.6387 150.431 75.8571L151.741 73.3972L151.569 70.9147L151.397 68.4321L150.481 70.1706C149.991 71.1344 149.104 72.8469 148.523 73.9708C147.851 75.2548 147.375 75.9444 147.219 75.7714C146.856 75.3675 151.324 67.1916 151.872 67.2203C152.119 67.2332 152.683 67.4826 153.106 67.8071ZM151.969 68.5171C152.001 68.9585 152.128 70.2019 152.264 71.2809L152.461 73.2975L153.448 73.3492C154.434 73.4009 155.74 72.6173 155.774 71.9595C155.797 71.5209 152.638 67.8101 152.227 67.7886C152.008 67.7771 151.911 68.0468 151.969 68.5171ZM155.545 73.7064C155.619 73.8752 155.831 74.0237 155.995 74.0323C156.16 74.0409 156.168 73.8765 155.962 73.6183C155.603 73.1323 155.268 73.2247 155.545 73.7064ZM155.247 74.6802C155.691 75.6379 156.113 75.9898 156.143 75.4142C156.164 75.0031 155.094 73.4079 154.921 73.5638C154.834 73.6417 154.973 74.1437 155.247 74.6802ZM154.624 75.5545C154.832 75.7853 155.323 75.3163 155.173 75.0336C155.072 74.8635 154.934 74.8837 154.758 75.0943C154.638 75.2805 154.572 75.4969 154.624 75.5545ZM155.262 76.4949C155.511 76.9752 156.045 77.278 156.065 76.8943C156.087 76.4832 155.525 75.6567 155.272 75.7809C155.129 75.8833 155.116 76.13 155.262 76.4949ZM156.107 76.0994C156.103 76.1817 156.155 76.2394 156.237 76.2437C156.319 76.248 156.377 76.196 156.381 76.1138C156.385 76.0316 156.333 75.9739 156.251 75.9696C156.169 75.9653 156.111 76.0172 156.107 76.0994ZM154.678 77.1514C154.666 77.3707 154.77 77.4861 154.939 77.4124C155.08 77.3374 155.227 77.1527 155.236 76.9883C155.243 76.8512 155.112 76.7344 154.975 76.7272C154.81 76.7186 154.691 76.9047 154.678 77.1514Z" fill="#FF30B3"/>
</g>
<path d="M113.814 47.4686C111.851 48.3832 108.442 51.7454 108.017 53.0619C107.831 53.657 107.441 54.5832 107.173 55.1272C106.905 55.6711 106.626 56.8259 106.547 57.693C106.464 58.6034 106.114 59.5769 105.826 59.8568C105.31 60.247 105.373 60.515 106.149 61.1101C106.634 61.5475 107.013 62.1938 106.981 62.5407C106.93 63.1043 107.06 63.1161 107.486 62.7613C107.959 62.3671 108.234 62.6982 108.885 64.1997L109.669 66.1506L110.138 61.4723L110.559 56.8334L112.25 56.9869C113.897 57.1365 113.98 57.1877 115.021 60.1672C115.616 61.7949 116.192 63.6393 116.271 64.2147C116.397 64.7507 116.701 65.2591 117.047 65.2906C117.871 65.3654 117.867 65.4087 116.196 60.711L114.693 56.5531L115.525 52.6945L116.356 48.836L117.401 51.7721C117.953 53.3958 118.958 56.2846 119.616 58.1803C120.381 60.3479 120.972 61.5381 121.256 61.3016C121.918 60.7498 116.75 46.9047 115.883 46.826C115.493 46.7905 114.551 47.0547 113.814 47.4686ZM115.438 48.84C115.288 49.5258 114.807 51.4492 114.35 53.1124L113.586 56.234L112.025 56.0923C110.464 55.9505 108.592 54.4255 108.687 53.385C108.75 52.6913 114.547 47.5789 115.197 47.6379C115.544 47.6694 115.635 48.1148 115.438 48.84ZM108.652 56.1793C108.498 56.4276 108.131 56.6129 107.871 56.5893C107.611 56.5657 107.635 56.3055 108.017 55.9468C108.691 55.2649 109.195 55.4856 108.652 56.1793ZM108.9 57.7755C107.986 59.1787 107.245 59.6359 107.328 58.7255C107.387 58.0752 109.428 55.8127 109.664 56.0964C109.783 56.2383 109.452 56.9951 108.9 57.7755ZM109.681 59.2888C109.302 59.6042 108.636 58.7569 108.936 58.347C109.133 58.1026 109.345 58.1656 109.574 58.5361C109.72 58.8553 109.775 59.21 109.681 59.2888ZM108.467 60.6211C107.966 61.3188 107.06 61.6736 107.115 61.0666C107.174 60.4163 108.242 59.2456 108.612 59.4978C108.813 59.6909 108.778 60.0811 108.467 60.6211ZM107.229 59.8094C107.217 59.9394 107.123 60.0182 106.993 60.0064C106.863 59.9946 106.784 59.9 106.796 59.77C106.807 59.6399 106.902 59.5611 107.032 59.5729C107.162 59.5847 107.241 59.6793 107.229 59.8094ZM109.235 61.7837C109.204 62.1305 109.015 62.2882 108.766 62.1345C108.561 61.9848 108.372 61.6616 108.396 61.4015C108.416 61.1847 108.648 61.031 108.865 61.0507C109.125 61.0743 109.271 61.3935 109.235 61.7837Z" fill="#FF30B3"/>
<g filter="url(#filter7_f_23_4438)">
<path d="M113.814 47.4686C111.851 48.3832 108.442 51.7454 108.017 53.0619C107.831 53.657 107.441 54.5832 107.173 55.1272C106.905 55.6711 106.626 56.8259 106.547 57.693C106.464 58.6034 106.114 59.5769 105.826 59.8568C105.31 60.247 105.373 60.515 106.149 61.1101C106.634 61.5475 107.013 62.1938 106.981 62.5407C106.93 63.1043 107.06 63.1161 107.486 62.7613C107.959 62.3671 108.234 62.6982 108.885 64.1997L109.669 66.1506L110.138 61.4723L110.559 56.8334L112.25 56.9869C113.897 57.1365 113.98 57.1877 115.021 60.1672C115.616 61.7949 116.192 63.6393 116.271 64.2147C116.397 64.7507 116.701 65.2591 117.047 65.2906C117.871 65.3654 117.867 65.4087 116.196 60.711L114.693 56.5531L115.525 52.6945L116.356 48.836L117.401 51.7721C117.953 53.3958 118.958 56.2846 119.616 58.1803C120.381 60.3479 120.972 61.5381 121.256 61.3016C121.918 60.7498 116.75 46.9047 115.883 46.826C115.493 46.7905 114.551 47.0547 113.814 47.4686ZM115.438 48.84C115.288 49.5258 114.807 51.4492 114.35 53.1124L113.586 56.234L112.025 56.0923C110.464 55.9505 108.592 54.4255 108.687 53.385C108.75 52.6913 114.547 47.5789 115.197 47.6379C115.544 47.6694 115.635 48.1148 115.438 48.84ZM108.652 56.1793C108.498 56.4276 108.131 56.6129 107.871 56.5893C107.611 56.5657 107.635 56.3055 108.017 55.9468C108.691 55.2649 109.195 55.4856 108.652 56.1793ZM108.9 57.7755C107.986 59.1787 107.245 59.6359 107.328 58.7255C107.387 58.0752 109.428 55.8127 109.664 56.0964C109.783 56.2383 109.452 56.9951 108.9 57.7755ZM109.681 59.2888C109.302 59.6042 108.636 58.7569 108.936 58.347C109.133 58.1026 109.345 58.1656 109.574 58.5361C109.72 58.8553 109.775 59.21 109.681 59.2888ZM108.467 60.6211C107.966 61.3188 107.06 61.6736 107.115 61.0666C107.174 60.4163 108.242 59.2456 108.612 59.4978C108.813 59.6909 108.778 60.0811 108.467 60.6211ZM107.229 59.8094C107.217 59.9394 107.123 60.0182 106.993 60.0064C106.863 59.9946 106.784 59.9 106.796 59.77C106.807 59.6399 106.902 59.5611 107.032 59.5729C107.162 59.5847 107.241 59.6793 107.229 59.8094ZM109.235 61.7837C109.204 62.1305 109.015 62.2882 108.766 62.1345C108.561 61.9848 108.372 61.6616 108.396 61.4015C108.416 61.1847 108.648 61.031 108.865 61.0507C109.125 61.0743 109.271 61.3935 109.235 61.7837Z" fill="#FF30B3"/>
</g>
<path fill-rule="evenodd" clip-rule="evenodd" d="M56.4317 80.1749L60.727 77.7933L61.1239 78.5092L56.8287 80.8908L56.4317 80.1749ZM56.5097 82.0036L56.1128 81.2877L56.8287 80.8908L57.2256 81.6066L56.5097 82.0036ZM58.8913 86.2988L56.5097 82.0036L55.7939 82.4005L58.1754 86.6957L58.8913 86.2988ZM60.0041 86.6177L59.6072 85.9019L58.8913 86.2988L59.2882 87.0146L60.0041 86.6177ZM64.2993 84.2362L64.6962 84.952L60.401 87.3336L60.0041 86.6177L64.2993 84.2362ZM64.6183 83.1234L65.0152 83.8392L64.2993 84.2362L63.9024 83.5203L64.6183 83.1234ZM62.2367 78.8281L62.9526 78.4312L65.3341 82.7264L64.6183 83.1234L62.2367 78.8281ZM62.2367 78.8281L61.8398 78.1123L61.1239 78.5092L61.5208 79.2251L62.2367 78.8281ZM58.8168 80.2564L59.5327 79.8595L59.9296 80.5753L61.0034 79.9799L61.4003 80.6958L60.3265 81.2912L59.6107 81.6881L59.2527 81.8866L59.6497 82.6025L61.0814 81.8086L61.7973 81.4117L62.1942 82.1275L62.5911 82.8434L62.988 83.5593L62.2722 83.9562L61.9142 84.1547L62.3112 84.8705L61.5953 85.2675L61.1984 84.5516L60.1246 85.147L59.7276 84.4311L60.8014 83.8357L61.5173 83.4388L61.8753 83.2403L61.4783 82.5245L60.0466 83.3183L59.3307 83.7152L58.9338 82.9994L58.5369 82.2835L58.1399 81.5676L58.8558 81.1707L59.2137 80.9722L58.8168 80.2564Z" fill="#FF30B3"/>
<path fill-rule="evenodd" clip-rule="evenodd" d="M88.122 78.7577L92.121 81.0309L91.7421 81.6974L87.7432 79.4242L88.122 78.7577ZM86.6978 79.7118L87.0767 79.0453L87.7432 79.4242L87.3643 80.0907L86.6978 79.7118ZM84.4247 83.7108L86.6978 79.7118L86.0313 79.333L83.7582 83.3319L84.4247 83.7108ZM84.7123 84.7561L85.0911 84.0896L84.4247 83.7108L84.0458 84.3772L84.7123 84.7561ZM88.7112 87.0293L88.3323 87.6958L84.3334 85.4226L84.7123 84.7561L88.7112 87.0293ZM89.7565 86.7417L89.3777 87.4081L88.7112 87.0293L89.0901 86.3628L89.7565 86.7417ZM92.0297 82.7427L92.6962 83.1216L90.423 87.1205L89.7565 86.7417L92.0297 82.7427ZM92.0297 82.7427L92.4086 82.0762L91.7421 81.6974L91.3632 82.3639L92.0297 82.7427ZM89.22 80.7046L89.8864 81.0835L89.5076 81.75L90.5073 82.3183L90.1285 82.9847L89.1287 82.4164L88.4622 82.0376L88.129 81.8482L87.7501 82.5146L89.0831 83.2724L89.7496 83.6512L89.3707 84.3177L88.9919 84.9842L88.613 85.6507L87.9465 85.2718L87.6133 85.0824L87.2344 85.7489L86.5679 85.37L86.9468 84.7035L85.9471 84.1352L86.3259 83.4688L87.3257 84.037L87.9921 84.4159L88.3254 84.6053L88.7042 83.9388L87.3713 83.1811L86.7048 82.8023L87.0836 82.1358L87.4625 81.4693L87.8414 80.8028L88.5079 81.1817L88.8411 81.3711L89.22 80.7046Z" fill="#FF30B3"/>
<path fill-rule="evenodd" clip-rule="evenodd" d="M103.849 88.3003L108.22 86.8691L108.459 87.5977L104.087 89.0289L103.849 88.3003ZM103.597 89.996L103.359 89.2674L104.087 89.0289L104.326 89.7575L103.597 89.996ZM105.028 94.3675L103.597 89.996L102.869 90.2345L104.3 94.6061L105.028 94.3675ZM105.996 94.8576L105.757 94.129L105.028 94.3675L105.267 95.0961L105.996 94.8576ZM110.367 93.4264L110.606 94.155L106.234 95.5862L105.996 94.8576L110.367 93.4264ZM110.857 92.4593L111.096 93.1879L110.367 93.4264L110.129 92.6978L110.857 92.4593ZM109.426 88.0877L110.155 87.8492L111.586 92.2208L110.857 92.4593L109.426 88.0877ZM109.426 88.0877L109.187 87.3592L108.459 87.5977L108.697 88.3263L109.426 88.0877ZM106.028 88.7968L106.757 88.5583L106.995 89.2869L108.088 88.9291L108.327 89.6577L107.234 90.0155L106.505 90.254L106.141 90.3733L106.379 91.1019L107.837 90.6248L108.565 90.3863L108.804 91.1149L109.042 91.8435L109.281 92.5721L108.552 92.8106L108.188 92.9299L108.426 93.6584L107.698 93.897L107.459 93.1684L106.366 93.5262L106.128 92.7976L107.221 92.4398L107.949 92.2013L108.314 92.082L108.075 91.3534L106.618 91.8305L105.889 92.069L105.651 91.3404L105.412 90.6118L105.174 89.8832L105.902 89.6447L106.267 89.5254L106.028 88.7968Z" fill="#FF30B3"/>
<path fill-rule="evenodd" clip-rule="evenodd" d="M153.712 67.3875L155.848 65.5967L156.147 65.9527L154.01 67.7435L153.712 67.3875ZM153.953 68.3979L153.654 68.0419L154.01 67.7435L154.309 68.0995L153.953 68.3979ZM155.744 70.534L153.953 68.3979L153.597 68.6964L155.388 70.8324L155.744 70.534ZM156.398 70.5915L156.1 70.2355L155.744 70.534L156.042 70.89L156.398 70.5915ZM158.534 68.8007L158.833 69.1567L156.697 70.9475L156.398 70.5915L158.534 68.8007ZM158.592 68.1463L158.89 68.5023L158.534 68.8007L158.236 68.4447L158.592 68.1463ZM156.801 66.0102L157.157 65.7118L158.948 67.8478L158.592 68.1463L156.801 66.0102ZM156.801 66.0102L156.503 65.6542L156.147 65.9527L156.445 66.3087L156.801 66.0102ZM155.05 67.1753L155.406 66.8768L155.704 67.2329L156.238 66.7852L156.537 67.1412L156.003 67.5889L155.647 67.8873L155.469 68.0366L155.767 68.3926L156.479 67.7956L156.835 67.4972L157.134 67.8532L157.432 68.2092L157.731 68.5652L157.374 68.8637L157.196 69.0129L157.495 69.3689L157.139 69.6673L156.84 69.3113L156.306 69.759L156.008 69.403L156.542 68.9553L156.898 68.6569L157.076 68.5076L156.778 68.1516L156.066 68.7486L155.71 69.047L155.411 68.691L155.113 68.335L154.814 67.979L155.17 67.6805L155.348 67.5313L155.05 67.1753Z" fill="#FF30B3"/>
<path fill-rule="evenodd" clip-rule="evenodd" d="M118.846 50.8651L123.014 49.6166L123.222 50.3112L119.054 51.5597L118.846 50.8651ZM118.568 52.4624L118.36 51.7678L119.054 51.5597L119.262 52.2543L118.568 52.4624ZM119.816 56.6301L118.568 52.4624L117.873 52.6705L119.122 56.8381L119.816 56.6301ZM120.719 57.1166L120.511 56.422L119.816 56.6301L120.024 57.3247L120.719 57.1166ZM124.887 55.8681L125.095 56.5627L120.927 57.8112L120.719 57.1166L124.887 55.8681ZM125.373 54.9654L125.581 55.66L124.887 55.8681L124.679 55.1735L125.373 54.9654ZM124.125 50.7977L124.819 50.5897L126.068 54.7573L125.373 54.9654L124.125 50.7977ZM124.125 50.7977L123.917 50.1031L123.222 50.3112L123.43 51.0058L124.125 50.7977ZM120.895 51.3868L121.59 51.1787L121.798 51.8733L122.84 51.5612L123.048 52.2558L122.006 52.5679L121.311 52.776L120.964 52.8801L121.172 53.5747L122.561 53.1585L123.256 52.9504L123.464 53.645L123.672 54.3397L123.88 55.0343L123.185 55.2423L122.838 55.3464L123.046 56.041L122.351 56.2491L122.143 55.5545L121.101 55.8666L120.893 55.172L121.935 54.8599L122.63 54.6518L122.977 54.5477L122.769 53.8531L121.38 54.2693L120.685 54.4774L120.477 53.7828L120.269 53.0881L120.061 52.3935L120.756 52.1855L121.103 52.0814L120.895 51.3868Z" fill="#FF30B3"/>
<path d="M194.237 41.7942L189.026 45.1108C188.764 45.2775 188.447 45.3334 188.143 45.2661C187.84 45.1987 187.576 45.0137 187.409 44.7517C187.243 44.4897 187.187 44.1721 187.254 43.8689C187.321 43.5657 187.506 43.3017 187.768 43.1349L192.979 39.8178M195.836 37.5374C195.135 36.8498 194.295 36.3198 193.372 35.9827C192.45 35.6456 191.466 35.5093 190.487 35.5828C190.394 35.6166 190.312 35.675 190.249 35.7517C190.186 35.8285 190.145 35.9207 190.13 36.0188C190.115 36.1169 190.127 36.2172 190.164 36.3091C190.201 36.401 190.263 36.4812 190.342 36.5412C191.476 37.233 192.489 38.1062 193.341 39.126" stroke="white" stroke-width="1.10408" stroke-linecap="round" stroke-linejoin="round"/>
<path d="M196.994 37.4493C196.915 37.3282 196.792 37.2428 196.651 37.2115C196.51 37.1802 196.362 37.2054 196.24 37.2818L193.21 39.2104C193.089 39.2892 193.003 39.4123 192.972 39.5534C192.941 39.6945 192.966 39.8422 193.042 39.9649L194.132 41.6773C194.211 41.7984 194.334 41.8838 194.475 41.9151C194.617 41.9465 194.764 41.9212 194.887 41.8448L197.917 39.9163C198.038 39.8375 198.123 39.7143 198.154 39.5732C198.186 39.4322 198.161 39.2844 198.084 39.1618L196.994 37.4493Z" stroke="white" stroke-width="1.10408" stroke-linecap="round" stroke-linejoin="round"/>
<path d="M197.513 40.1721C197.839 41.0983 197.964 42.0835 197.879 43.0618C197.794 44.0401 197.501 44.989 197.02 45.845C196.95 45.915 196.862 45.9649 196.766 45.9893C196.67 46.0137 196.569 46.0118 196.474 45.9838C196.379 45.9558 196.293 45.9028 196.226 45.8302C196.158 45.7576 196.112 45.6682 196.091 45.5713C195.944 44.2507 195.582 42.963 195.018 41.7597" stroke="white" stroke-width="1.10408" stroke-linecap="round" stroke-linejoin="round"/>
<defs>
<filter id="filter0_f_23_4438" x="32" y="70" width="36.8105" height="44.0469" filterUnits="userSpaceOnUse" color-interpolation-filters="sRGB">
<feFlood flood-opacity="0" result="BackgroundImageFix"/>
<feBlend mode="normal" in="SourceGraphic" in2="BackgroundImageFix" result="shape"/>
<feGaussianBlur stdDeviation="2" result="effect1_foregroundBlur_23_4438"/>
</filter>
<filter id="filter1_f_23_4438" x="83.3818" y="74.4219" width="27.1201" height="32.25" filterUnits="userSpaceOnUse" color-interpolation-filters="sRGB">
<feFlood flood-opacity="0" result="BackgroundImageFix"/>
<feBlend mode="normal" in="SourceGraphic" in2="BackgroundImageFix" result="shape"/>
<feGaussianBlur stdDeviation="2" result="effect1_foregroundBlur_23_4438"/>
</filter>
<filter id="filter2_f_23_4438" x="144.198" y="64.2188" width="17.9482" height="20.6172" filterUnits="userSpaceOnUse" color-interpolation-filters="sRGB">
<feFlood flood-opacity="0" result="BackgroundImageFix"/>
<feBlend mode="normal" in="SourceGraphic" in2="BackgroundImageFix" result="shape"/>
<feGaussianBlur stdDeviation="2" result="effect1_foregroundBlur_23_4438"/>
</filter>
<filter id="filter3_f_23_4438" x="102.492" y="43.8242" width="23.8223" height="27.3281" filterUnits="userSpaceOnUse" color-interpolation-filters="sRGB">
<feFlood flood-opacity="0" result="BackgroundImageFix"/>
<feBlend mode="normal" in="SourceGraphic" in2="BackgroundImageFix" result="shape"/>
<feGaussianBlur stdDeviation="2" result="effect1_foregroundBlur_23_4438"/>
</filter>
<filter id="filter4_f_23_4438" x="31" y="69" width="36.8105" height="44.0469" filterUnits="userSpaceOnUse" color-interpolation-filters="sRGB">
<feFlood flood-opacity="0" result="BackgroundImageFix"/>
<feBlend mode="normal" in="SourceGraphic" in2="BackgroundImageFix" result="shape"/>
<feGaussianBlur stdDeviation="2" result="effect1_foregroundBlur_23_4438"/>
</filter>
<filter id="filter5_f_23_4438" x="82.3818" y="73.4219" width="27.1201" height="32.25" filterUnits="userSpaceOnUse" color-interpolation-filters="sRGB">
<feFlood flood-opacity="0" result="BackgroundImageFix"/>
<feBlend mode="normal" in="SourceGraphic" in2="BackgroundImageFix" result="shape"/>
<feGaussianBlur stdDeviation="2" result="effect1_foregroundBlur_23_4438"/>
</filter>
<filter id="filter6_f_23_4438" x="143.198" y="63.2188" width="17.9482" height="20.6172" filterUnits="userSpaceOnUse" color-interpolation-filters="sRGB">
<feFlood flood-opacity="0" result="BackgroundImageFix"/>
<feBlend mode="normal" in="SourceGraphic" in2="BackgroundImageFix" result="shape"/>
<feGaussianBlur stdDeviation="2" result="effect1_foregroundBlur_23_4438"/>
</filter>
<filter id="filter7_f_23_4438" x="101.492" y="42.8242" width="23.8223" height="27.3281" filterUnits="userSpaceOnUse" color-interpolation-filters="sRGB">
<feFlood flood-opacity="0" result="BackgroundImageFix"/>
<feBlend mode="normal" in="SourceGraphic" in2="BackgroundImageFix" result="shape"/>
<feGaussianBlur stdDeviation="2" result="effect1_foregroundBlur_23_4438"/>
</filter>
</defs>
</svg>
