<svg width="240" height="181" viewBox="0 0 240 181" fill="none" xmlns="http://www.w3.org/2000/svg">
<path d="M116.146 5.89377C114.137 8.15479 110.117 15.4403 107.354 21.9721C103.836 30.2625 100.319 34.2821 95.7973 35.5382C92.5314 36.2919 86.7533 41.0652 83.2361 46.0896C79.719 51.3654 74.4433 56.8923 71.6798 58.6508C68.9163 60.4094 66.6553 63.1729 66.6553 65.1827C66.6553 66.9412 64.6455 69.2023 62.3845 70.2072C59.8723 70.9608 45.5525 78.7488 30.2278 87.5416C-12.2291 111.659 -10.9729 114.171 62.887 154.116C83.7386 165.17 102.832 176.224 105.595 178.234C110.117 181.499 112.127 180.997 129.21 171.702C139.51 165.924 154.835 157.131 163.125 151.855C192.519 133.767 232.212 111.91 235.98 111.91C238.995 111.91 240 109.398 240 103.118C240 96.0833 238.744 93.8222 234.222 92.0637C227.941 89.5514 191.765 66.9412 189.755 64.1778C187.745 61.1631 177.194 58.6508 177.194 60.9119C177.194 61.9168 179.455 64.429 182.218 66.1876C187.243 69.2023 189.001 74.2268 185.233 74.2268C184.228 74.2268 179.455 70.9608 174.682 66.9412C166.14 59.6557 166.14 59.4045 171.416 57.3947C176.943 55.3849 176.943 55.1337 165.889 36.5431C159.859 26.2429 153.83 16.194 152.574 14.1842C150.815 11.1695 148.052 11.6719 136.244 17.1989C124.437 22.4746 121.925 22.977 121.925 19.9623C121.925 17.7013 124.186 15.4403 126.949 14.6866C133.732 12.9281 133.23 7.90356 125.944 4.38643C121.171 2.12541 119.161 2.62785 116.146 5.89377ZM121.171 11.9232C120.417 13.9329 119.664 13.1793 119.664 10.4158C119.412 7.65234 120.166 6.14499 120.92 7.14989C121.673 7.90356 121.925 10.1646 121.171 11.9232ZM118.156 18.7062C119.412 20.9672 112.127 30.2625 110.368 28.504C109.866 28.0015 110.117 24.9868 111.122 21.9721C112.629 16.194 115.644 14.6866 118.156 18.7062ZM154.333 26.9966C156.091 31.5186 160.111 39.5578 163.628 44.8335C170.411 55.3849 169.908 59.907 162.874 53.6264C156.091 47.597 131.722 36.0407 129.964 37.7992C128.959 38.8041 127.954 48.6019 127.703 59.6557C127.452 70.7096 126.949 80.0049 126.447 80.2561C125.944 80.5074 122.427 82.7684 118.659 85.2806C114.639 87.7929 111.122 89.3002 110.871 88.7978C110.117 87.0392 103.585 69.9559 99.0632 56.8923C96.2998 49.3556 95.0436 42.5725 95.7973 41.8188C98.5608 38.8041 143.279 19.2086 147.549 19.2086C149.811 18.9574 152.825 22.2233 154.333 26.9966ZM147.801 49.3556C152.825 51.1141 157.096 53.3751 157.096 54.38C157.096 55.3849 153.328 61.9168 148.554 68.951C143.781 75.9853 141.018 82.2659 142.274 83.0196C144.786 84.7782 145.54 101.861 142.776 101.861C141.771 101.861 138.505 99.6004 135.742 96.8369L130.215 91.5612L121.422 96.8369C110.117 103.369 100.319 102.113 84.241 91.8124C72.1822 84.0245 71.4286 83.0196 73.1871 75.7341C74.6945 68.951 88.763 51.6166 93.0339 51.6166C93.7875 51.6166 94.29 54.38 94.29 57.8972C94.29 61.4143 96.551 68.6998 99.3145 74.2268C102.078 79.7537 104.339 86.2855 104.339 89.049C104.339 97.3394 108.61 97.5906 121.925 90.0539C134.235 83.0196 139.762 76.4878 134.737 74.7292C133.23 74.2268 131.974 67.1925 131.974 58.6508C131.974 47.597 132.727 44.0798 135.24 45.0847C136.747 45.5872 142.525 47.597 147.801 49.3556ZM166.391 69.7047C172.421 75.2316 174.179 87.7929 169.657 90.5563C168.15 91.5612 167.145 89.3002 167.145 85.5318C167.145 79.2512 161.116 74.2268 157.85 77.7439C156.845 78.4976 155.589 84.0245 154.835 89.8027C154.081 95.5808 152.072 100.605 150.564 101.108C146.545 102.364 149.308 76.9902 154.081 69.7047C158.603 62.9217 159.106 62.9217 166.391 69.7047ZM69.1676 75.9853C69.1676 79.7537 64.3943 85.2806 62.6357 83.7733C61.6308 82.7684 57.8625 84.0245 54.3453 86.5367C37.5133 98.093 13.3958 109.901 10.8836 107.388C9.37621 105.881 13.3958 102.615 21.9374 97.8418C69.1676 72.7194 69.1676 72.7194 69.1676 75.9853ZM204.326 90.8075C214.124 95.832 222.414 100.857 222.414 101.61C222.414 103.369 196.036 118.945 173.426 130.752C165.135 135.274 149.811 143.565 139.008 149.343C128.456 155.121 117.403 160.397 114.137 160.899C107.605 162.155 20.6813 115.428 22.6911 111.659C23.4448 110.403 33.745 104.374 45.3013 98.093L66.6553 86.2855L74.4433 92.0637C78.7141 95.0784 88.0094 100.605 95.0436 104.625L107.605 111.408L118.659 105.127C128.959 99.3492 130.215 99.3492 134.235 102.866C140.515 108.393 148.806 107.64 163.377 99.6004C174.682 93.571 175.938 91.8124 176.691 83.2708C177.445 74.478 177.948 73.9755 181.716 77.4927C183.977 79.7537 194.277 85.5318 204.326 90.8075ZM212.365 84.7782C222.163 90.3051 229.951 96.0833 229.951 97.3394C229.951 100.354 194.026 80.5074 192.77 76.9902C191.263 72.7194 194.026 73.7243 212.365 84.7782ZM164.633 87.7929C164.633 89.8027 163.628 92.3149 162.12 93.0686C160.864 93.8222 159.608 92.3149 159.608 89.5514C159.608 86.5367 160.864 84.2757 162.12 84.2757C163.628 84.2757 164.633 85.7831 164.633 87.7929ZM212.114 117.689C200.558 123.718 187.997 130.501 184.228 133.013C180.209 135.525 177.194 136.53 177.194 135.525C177.445 132.26 222.666 107.137 228.444 106.886C231.207 106.886 223.922 111.659 212.114 117.689ZM6.36152 113.166C6.36152 113.92 5.85907 114.423 5.1054 114.423C4.35173 114.423 3.84928 113.92 3.84928 113.166C3.84928 112.413 4.35173 111.91 5.1054 111.91C5.85907 111.91 6.36152 112.413 6.36152 113.166ZM46.3062 133.516C48.316 135.525 49.3209 137.535 48.5672 138.54C46.3062 140.55 11.386 118.945 12.8933 116.432C14.1495 114.423 40.0256 127.738 46.3062 133.516ZM109.112 171.199C109.866 174.968 109.112 174.968 102.832 170.446C98.812 167.682 86.2508 160.648 74.9457 154.618C63.3894 148.589 54.0941 142.309 54.0941 140.55C54.0941 136.028 107.856 165.924 109.112 171.199ZM168.652 141.806C167.647 143.313 158.855 149.092 148.806 154.87C138.757 160.648 127.2 167.431 122.678 170.194C117.905 172.958 114.137 173.963 113.383 172.455C112.378 171.199 117.151 166.928 123.683 163.16C130.466 159.392 143.027 152.106 152.072 147.082C168.15 137.786 171.918 136.53 168.652 141.806Z" fill="#96FF65" fill-opacity="0.7"/>
<mask id="path-2-outside-1_6_4378" maskUnits="userSpaceOnUse" x="0" y="-0.9375" width="240" height="180" fill="black">
<rect fill="white" y="-0.9375" width="240" height="180"/>
<path d="M115.146 3.89377C113.137 6.15479 109.117 13.4403 106.354 19.9721C102.836 28.2625 99.3194 32.2821 94.7973 33.5382C91.5314 34.2919 85.7533 39.0652 82.2361 44.0896C78.719 49.3654 73.4433 54.8923 70.6798 56.6508C67.9163 58.4094 65.6553 61.1729 65.6553 63.1827C65.6553 64.9412 63.6455 67.2023 61.3845 68.2072C58.8723 68.9608 44.5525 76.7488 29.2278 85.5416C-13.2291 109.659 -11.9729 112.171 61.887 152.116C82.7386 163.17 101.832 174.224 104.595 176.234C109.117 179.499 111.127 178.997 128.21 169.702C138.51 163.924 153.835 155.131 162.125 149.855C191.519 131.767 231.212 109.91 234.98 109.91C237.995 109.91 239 107.398 239 101.118C239 94.0833 237.744 91.8222 233.222 90.0637C226.941 87.5514 190.765 64.9412 188.755 62.1778C186.745 59.1631 176.194 56.6508 176.194 58.9119C176.194 59.9168 178.455 62.429 181.218 64.1876C186.243 67.2023 188.001 72.2268 184.233 72.2268C183.228 72.2268 178.455 68.9608 173.682 64.9412C165.14 57.6557 165.14 57.4045 170.416 55.3947C175.943 53.3849 175.943 53.1337 164.889 34.5431C158.859 24.2429 152.83 14.194 151.574 12.1842C149.815 9.16948 147.052 9.67192 135.244 15.1989C123.437 20.4746 120.925 20.977 120.925 17.9623C120.925 15.7013 123.186 13.4403 125.949 12.6866C132.732 10.9281 132.23 5.90356 124.944 2.38643C120.171 0.125412 118.161 0.627853 115.146 3.89377ZM120.171 9.92316C119.417 11.9329 118.664 11.1793 118.664 8.4158C118.412 5.65234 119.166 4.14499 119.92 5.14989C120.673 5.90356 120.925 8.16458 120.171 9.92316ZM117.156 16.7062C118.412 18.9672 111.127 28.2625 109.368 26.504C108.866 26.0015 109.117 22.9868 110.122 19.9721C111.629 14.194 114.644 12.6866 117.156 16.7062ZM153.333 24.9966C155.091 29.5186 159.111 37.5578 162.628 42.8335C169.411 53.3849 168.908 57.907 161.874 51.6264C155.091 45.597 130.722 34.0407 128.964 35.7992C127.959 36.8041 126.954 46.6019 126.703 57.6557C126.452 68.7096 125.949 78.0049 125.447 78.2561C124.944 78.5074 121.427 80.7684 117.659 83.2806C113.639 85.7929 110.122 87.3002 109.871 86.7978C109.117 85.0392 102.585 67.9559 98.0632 54.8923C95.2998 47.3556 94.0436 40.5725 94.7973 39.8188C97.5608 36.8041 142.279 17.2086 146.549 17.2086C148.811 16.9574 151.825 20.2233 153.333 24.9966ZM146.801 47.3556C151.825 49.1141 156.096 51.3751 156.096 52.38C156.096 53.3849 152.328 59.9168 147.554 66.951C142.781 73.9853 140.018 80.2659 141.274 81.0196C143.786 82.7782 144.54 99.8614 141.776 99.8614C140.771 99.8614 137.505 97.6004 134.742 94.8369L129.215 89.5612L120.422 94.8369C109.117 101.369 99.3194 100.113 83.241 89.8124C71.1822 82.0245 70.4286 81.0196 72.1871 73.7341C73.6945 66.951 87.763 49.6166 92.0339 49.6166C92.7875 49.6166 93.29 52.38 93.29 55.8972C93.29 59.4143 95.551 66.6998 98.3145 72.2268C101.078 77.7537 103.339 84.2855 103.339 87.049C103.339 95.3394 107.61 95.5906 120.925 88.0539C133.235 81.0196 138.762 74.4878 133.737 72.7292C132.23 72.2268 130.974 65.1925 130.974 56.6508C130.974 45.597 131.727 42.0798 134.24 43.0847C135.747 43.5872 141.525 45.597 146.801 47.3556ZM165.391 67.7047C171.421 73.2316 173.179 85.7929 168.657 88.5563C167.15 89.5612 166.145 87.3002 166.145 83.5318C166.145 77.2512 160.116 72.2268 156.85 75.7439C155.845 76.4976 154.589 82.0245 153.835 87.8027C153.081 93.5808 151.072 98.6053 149.564 99.1077C145.545 100.364 148.308 74.9902 153.081 67.7047C157.603 60.9217 158.106 60.9217 165.391 67.7047ZM68.1676 73.9853C68.1676 77.7537 63.3943 83.2806 61.6357 81.7733C60.6308 80.7684 56.8625 82.0245 53.3453 84.5367C36.5133 96.093 12.3958 107.901 9.88355 105.388C8.37621 103.881 12.3958 100.615 20.9374 95.8418C68.1676 70.7194 68.1676 70.7194 68.1676 73.9853ZM203.326 88.8075C213.124 93.832 221.414 98.8565 221.414 99.6102C221.414 101.369 195.036 116.945 172.426 128.752C164.135 133.274 148.811 141.565 138.008 147.343C127.456 153.121 116.403 158.397 113.137 158.899C106.605 160.155 19.6813 113.428 21.6911 109.659C22.4448 108.403 32.745 102.374 44.3013 96.093L65.6553 84.2855L73.4433 90.0637C77.7141 93.0784 87.0094 98.6053 94.0436 102.625L106.605 109.408L117.659 103.127C127.959 97.3492 129.215 97.3492 133.235 100.866C139.515 106.393 147.806 105.64 162.377 97.6004C173.682 91.571 174.938 89.8124 175.691 81.2708C176.445 72.478 176.948 71.9755 180.716 75.4927C182.977 77.7537 193.277 83.5318 203.326 88.8075ZM211.365 82.7782C221.163 88.3051 228.951 94.0833 228.951 95.3394C228.951 98.3541 193.026 78.5074 191.77 74.9902C190.263 70.7194 193.026 71.7243 211.365 82.7782ZM163.633 85.7929C163.633 87.8027 162.628 90.3149 161.12 91.0686C159.864 91.8222 158.608 90.3149 158.608 87.5514C158.608 84.5367 159.864 82.2757 161.12 82.2757C162.628 82.2757 163.633 83.7831 163.633 85.7929ZM211.114 115.689C199.558 121.718 186.997 128.501 183.228 131.013C179.209 133.525 176.194 134.53 176.194 133.525C176.445 130.26 221.666 105.137 227.444 104.886C230.207 104.886 222.922 109.659 211.114 115.689ZM5.36152 111.166C5.36152 111.92 4.85907 112.423 4.1054 112.423C3.35173 112.423 2.84928 111.92 2.84928 111.166C2.84928 110.413 3.35173 109.91 4.1054 109.91C4.85907 109.91 5.36152 110.413 5.36152 111.166ZM45.3062 131.516C47.316 133.525 48.3209 135.535 47.5672 136.54C45.3062 138.55 10.386 116.945 11.8933 114.432C13.1495 112.423 39.0256 125.738 45.3062 131.516ZM108.112 169.199C108.866 172.968 108.112 172.968 101.832 168.446C97.812 165.682 85.2508 158.648 73.9457 152.618C62.3894 146.589 53.0941 140.309 53.0941 138.55C53.0941 134.028 106.856 163.924 108.112 169.199ZM167.652 139.806C166.647 141.313 157.855 147.092 147.806 152.87C137.757 158.648 126.2 165.431 121.678 168.194C116.905 170.958 113.137 171.963 112.383 170.455C111.378 169.199 116.151 164.928 122.683 161.16C129.466 157.392 142.027 150.106 151.072 145.082C167.15 135.786 170.918 134.53 167.652 139.806Z"/>
</mask>
<path d="M115.146 3.89377C113.137 6.15479 109.117 13.4403 106.354 19.9721C102.836 28.2625 99.3194 32.2821 94.7973 33.5382C91.5314 34.2919 85.7533 39.0652 82.2361 44.0896C78.719 49.3654 73.4433 54.8923 70.6798 56.6508C67.9163 58.4094 65.6553 61.1729 65.6553 63.1827C65.6553 64.9412 63.6455 67.2023 61.3845 68.2072C58.8723 68.9608 44.5525 76.7488 29.2278 85.5416C-13.2291 109.659 -11.9729 112.171 61.887 152.116C82.7386 163.17 101.832 174.224 104.595 176.234C109.117 179.499 111.127 178.997 128.21 169.702C138.51 163.924 153.835 155.131 162.125 149.855C191.519 131.767 231.212 109.91 234.98 109.91C237.995 109.91 239 107.398 239 101.118C239 94.0833 237.744 91.8222 233.222 90.0637C226.941 87.5514 190.765 64.9412 188.755 62.1778C186.745 59.1631 176.194 56.6508 176.194 58.9119C176.194 59.9168 178.455 62.429 181.218 64.1876C186.243 67.2023 188.001 72.2268 184.233 72.2268C183.228 72.2268 178.455 68.9608 173.682 64.9412C165.14 57.6557 165.14 57.4045 170.416 55.3947C175.943 53.3849 175.943 53.1337 164.889 34.5431C158.859 24.2429 152.83 14.194 151.574 12.1842C149.815 9.16948 147.052 9.67192 135.244 15.1989C123.437 20.4746 120.925 20.977 120.925 17.9623C120.925 15.7013 123.186 13.4403 125.949 12.6866C132.732 10.9281 132.23 5.90356 124.944 2.38643C120.171 0.125412 118.161 0.627853 115.146 3.89377ZM120.171 9.92316C119.417 11.9329 118.664 11.1793 118.664 8.4158C118.412 5.65234 119.166 4.14499 119.92 5.14989C120.673 5.90356 120.925 8.16458 120.171 9.92316ZM117.156 16.7062C118.412 18.9672 111.127 28.2625 109.368 26.504C108.866 26.0015 109.117 22.9868 110.122 19.9721C111.629 14.194 114.644 12.6866 117.156 16.7062ZM153.333 24.9966C155.091 29.5186 159.111 37.5578 162.628 42.8335C169.411 53.3849 168.908 57.907 161.874 51.6264C155.091 45.597 130.722 34.0407 128.964 35.7992C127.959 36.8041 126.954 46.6019 126.703 57.6557C126.452 68.7096 125.949 78.0049 125.447 78.2561C124.944 78.5074 121.427 80.7684 117.659 83.2806C113.639 85.7929 110.122 87.3002 109.871 86.7978C109.117 85.0392 102.585 67.9559 98.0632 54.8923C95.2998 47.3556 94.0436 40.5725 94.7973 39.8188C97.5608 36.8041 142.279 17.2086 146.549 17.2086C148.811 16.9574 151.825 20.2233 153.333 24.9966ZM146.801 47.3556C151.825 49.1141 156.096 51.3751 156.096 52.38C156.096 53.3849 152.328 59.9168 147.554 66.951C142.781 73.9853 140.018 80.2659 141.274 81.0196C143.786 82.7782 144.54 99.8614 141.776 99.8614C140.771 99.8614 137.505 97.6004 134.742 94.8369L129.215 89.5612L120.422 94.8369C109.117 101.369 99.3194 100.113 83.241 89.8124C71.1822 82.0245 70.4286 81.0196 72.1871 73.7341C73.6945 66.951 87.763 49.6166 92.0339 49.6166C92.7875 49.6166 93.29 52.38 93.29 55.8972C93.29 59.4143 95.551 66.6998 98.3145 72.2268C101.078 77.7537 103.339 84.2855 103.339 87.049C103.339 95.3394 107.61 95.5906 120.925 88.0539C133.235 81.0196 138.762 74.4878 133.737 72.7292C132.23 72.2268 130.974 65.1925 130.974 56.6508C130.974 45.597 131.727 42.0798 134.24 43.0847C135.747 43.5872 141.525 45.597 146.801 47.3556ZM165.391 67.7047C171.421 73.2316 173.179 85.7929 168.657 88.5563C167.15 89.5612 166.145 87.3002 166.145 83.5318C166.145 77.2512 160.116 72.2268 156.85 75.7439C155.845 76.4976 154.589 82.0245 153.835 87.8027C153.081 93.5808 151.072 98.6053 149.564 99.1077C145.545 100.364 148.308 74.9902 153.081 67.7047C157.603 60.9217 158.106 60.9217 165.391 67.7047ZM68.1676 73.9853C68.1676 77.7537 63.3943 83.2806 61.6357 81.7733C60.6308 80.7684 56.8625 82.0245 53.3453 84.5367C36.5133 96.093 12.3958 107.901 9.88355 105.388C8.37621 103.881 12.3958 100.615 20.9374 95.8418C68.1676 70.7194 68.1676 70.7194 68.1676 73.9853ZM203.326 88.8075C213.124 93.832 221.414 98.8565 221.414 99.6102C221.414 101.369 195.036 116.945 172.426 128.752C164.135 133.274 148.811 141.565 138.008 147.343C127.456 153.121 116.403 158.397 113.137 158.899C106.605 160.155 19.6813 113.428 21.6911 109.659C22.4448 108.403 32.745 102.374 44.3013 96.093L65.6553 84.2855L73.4433 90.0637C77.7141 93.0784 87.0094 98.6053 94.0436 102.625L106.605 109.408L117.659 103.127C127.959 97.3492 129.215 97.3492 133.235 100.866C139.515 106.393 147.806 105.64 162.377 97.6004C173.682 91.571 174.938 89.8124 175.691 81.2708C176.445 72.478 176.948 71.9755 180.716 75.4927C182.977 77.7537 193.277 83.5318 203.326 88.8075ZM211.365 82.7782C221.163 88.3051 228.951 94.0833 228.951 95.3394C228.951 98.3541 193.026 78.5074 191.77 74.9902C190.263 70.7194 193.026 71.7243 211.365 82.7782ZM163.633 85.7929C163.633 87.8027 162.628 90.3149 161.12 91.0686C159.864 91.8222 158.608 90.3149 158.608 87.5514C158.608 84.5367 159.864 82.2757 161.12 82.2757C162.628 82.2757 163.633 83.7831 163.633 85.7929ZM211.114 115.689C199.558 121.718 186.997 128.501 183.228 131.013C179.209 133.525 176.194 134.53 176.194 133.525C176.445 130.26 221.666 105.137 227.444 104.886C230.207 104.886 222.922 109.659 211.114 115.689ZM5.36152 111.166C5.36152 111.92 4.85907 112.423 4.1054 112.423C3.35173 112.423 2.84928 111.92 2.84928 111.166C2.84928 110.413 3.35173 109.91 4.1054 109.91C4.85907 109.91 5.36152 110.413 5.36152 111.166ZM45.3062 131.516C47.316 133.525 48.3209 135.535 47.5672 136.54C45.3062 138.55 10.386 116.945 11.8933 114.432C13.1495 112.423 39.0256 125.738 45.3062 131.516ZM108.112 169.199C108.866 172.968 108.112 172.968 101.832 168.446C97.812 165.682 85.2508 158.648 73.9457 152.618C62.3894 146.589 53.0941 140.309 53.0941 138.55C53.0941 134.028 106.856 163.924 108.112 169.199ZM167.652 139.806C166.647 141.313 157.855 147.092 147.806 152.87C137.757 158.648 126.2 165.431 121.678 168.194C116.905 170.958 113.137 171.963 112.383 170.455C111.378 169.199 116.151 164.928 122.683 161.16C129.466 157.392 142.027 150.106 151.072 145.082C167.15 135.786 170.918 134.53 167.652 139.806Z" fill="white"/>
<path d="M115.146 3.89377C113.137 6.15479 109.117 13.4403 106.354 19.9721C102.836 28.2625 99.3194 32.2821 94.7973 33.5382C91.5314 34.2919 85.7533 39.0652 82.2361 44.0896C78.719 49.3654 73.4433 54.8923 70.6798 56.6508C67.9163 58.4094 65.6553 61.1729 65.6553 63.1827C65.6553 64.9412 63.6455 67.2023 61.3845 68.2072C58.8723 68.9608 44.5525 76.7488 29.2278 85.5416C-13.2291 109.659 -11.9729 112.171 61.887 152.116C82.7386 163.17 101.832 174.224 104.595 176.234C109.117 179.499 111.127 178.997 128.21 169.702C138.51 163.924 153.835 155.131 162.125 149.855C191.519 131.767 231.212 109.91 234.98 109.91C237.995 109.91 239 107.398 239 101.118C239 94.0833 237.744 91.8222 233.222 90.0637C226.941 87.5514 190.765 64.9412 188.755 62.1778C186.745 59.1631 176.194 56.6508 176.194 58.9119C176.194 59.9168 178.455 62.429 181.218 64.1876C186.243 67.2023 188.001 72.2268 184.233 72.2268C183.228 72.2268 178.455 68.9608 173.682 64.9412C165.14 57.6557 165.14 57.4045 170.416 55.3947C175.943 53.3849 175.943 53.1337 164.889 34.5431C158.859 24.2429 152.83 14.194 151.574 12.1842C149.815 9.16948 147.052 9.67192 135.244 15.1989C123.437 20.4746 120.925 20.977 120.925 17.9623C120.925 15.7013 123.186 13.4403 125.949 12.6866C132.732 10.9281 132.23 5.90356 124.944 2.38643C120.171 0.125412 118.161 0.627853 115.146 3.89377ZM120.171 9.92316C119.417 11.9329 118.664 11.1793 118.664 8.4158C118.412 5.65234 119.166 4.14499 119.92 5.14989C120.673 5.90356 120.925 8.16458 120.171 9.92316ZM117.156 16.7062C118.412 18.9672 111.127 28.2625 109.368 26.504C108.866 26.0015 109.117 22.9868 110.122 19.9721C111.629 14.194 114.644 12.6866 117.156 16.7062ZM153.333 24.9966C155.091 29.5186 159.111 37.5578 162.628 42.8335C169.411 53.3849 168.908 57.907 161.874 51.6264C155.091 45.597 130.722 34.0407 128.964 35.7992C127.959 36.8041 126.954 46.6019 126.703 57.6557C126.452 68.7096 125.949 78.0049 125.447 78.2561C124.944 78.5074 121.427 80.7684 117.659 83.2806C113.639 85.7929 110.122 87.3002 109.871 86.7978C109.117 85.0392 102.585 67.9559 98.0632 54.8923C95.2998 47.3556 94.0436 40.5725 94.7973 39.8188C97.5608 36.8041 142.279 17.2086 146.549 17.2086C148.811 16.9574 151.825 20.2233 153.333 24.9966ZM146.801 47.3556C151.825 49.1141 156.096 51.3751 156.096 52.38C156.096 53.3849 152.328 59.9168 147.554 66.951C142.781 73.9853 140.018 80.2659 141.274 81.0196C143.786 82.7782 144.54 99.8614 141.776 99.8614C140.771 99.8614 137.505 97.6004 134.742 94.8369L129.215 89.5612L120.422 94.8369C109.117 101.369 99.3194 100.113 83.241 89.8124C71.1822 82.0245 70.4286 81.0196 72.1871 73.7341C73.6945 66.951 87.763 49.6166 92.0339 49.6166C92.7875 49.6166 93.29 52.38 93.29 55.8972C93.29 59.4143 95.551 66.6998 98.3145 72.2268C101.078 77.7537 103.339 84.2855 103.339 87.049C103.339 95.3394 107.61 95.5906 120.925 88.0539C133.235 81.0196 138.762 74.4878 133.737 72.7292C132.23 72.2268 130.974 65.1925 130.974 56.6508C130.974 45.597 131.727 42.0798 134.24 43.0847C135.747 43.5872 141.525 45.597 146.801 47.3556ZM165.391 67.7047C171.421 73.2316 173.179 85.7929 168.657 88.5563C167.15 89.5612 166.145 87.3002 166.145 83.5318C166.145 77.2512 160.116 72.2268 156.85 75.7439C155.845 76.4976 154.589 82.0245 153.835 87.8027C153.081 93.5808 151.072 98.6053 149.564 99.1077C145.545 100.364 148.308 74.9902 153.081 67.7047C157.603 60.9217 158.106 60.9217 165.391 67.7047ZM68.1676 73.9853C68.1676 77.7537 63.3943 83.2806 61.6357 81.7733C60.6308 80.7684 56.8625 82.0245 53.3453 84.5367C36.5133 96.093 12.3958 107.901 9.88355 105.388C8.37621 103.881 12.3958 100.615 20.9374 95.8418C68.1676 70.7194 68.1676 70.7194 68.1676 73.9853ZM203.326 88.8075C213.124 93.832 221.414 98.8565 221.414 99.6102C221.414 101.369 195.036 116.945 172.426 128.752C164.135 133.274 148.811 141.565 138.008 147.343C127.456 153.121 116.403 158.397 113.137 158.899C106.605 160.155 19.6813 113.428 21.6911 109.659C22.4448 108.403 32.745 102.374 44.3013 96.093L65.6553 84.2855L73.4433 90.0637C77.7141 93.0784 87.0094 98.6053 94.0436 102.625L106.605 109.408L117.659 103.127C127.959 97.3492 129.215 97.3492 133.235 100.866C139.515 106.393 147.806 105.64 162.377 97.6004C173.682 91.571 174.938 89.8124 175.691 81.2708C176.445 72.478 176.948 71.9755 180.716 75.4927C182.977 77.7537 193.277 83.5318 203.326 88.8075ZM211.365 82.7782C221.163 88.3051 228.951 94.0833 228.951 95.3394C228.951 98.3541 193.026 78.5074 191.77 74.9902C190.263 70.7194 193.026 71.7243 211.365 82.7782ZM163.633 85.7929C163.633 87.8027 162.628 90.3149 161.12 91.0686C159.864 91.8222 158.608 90.3149 158.608 87.5514C158.608 84.5367 159.864 82.2757 161.12 82.2757C162.628 82.2757 163.633 83.7831 163.633 85.7929ZM211.114 115.689C199.558 121.718 186.997 128.501 183.228 131.013C179.209 133.525 176.194 134.53 176.194 133.525C176.445 130.26 221.666 105.137 227.444 104.886C230.207 104.886 222.922 109.659 211.114 115.689ZM5.36152 111.166C5.36152 111.92 4.85907 112.423 4.1054 112.423C3.35173 112.423 2.84928 111.92 2.84928 111.166C2.84928 110.413 3.35173 109.91 4.1054 109.91C4.85907 109.91 5.36152 110.413 5.36152 111.166ZM45.3062 131.516C47.316 133.525 48.3209 135.535 47.5672 136.54C45.3062 138.55 10.386 116.945 11.8933 114.432C13.1495 112.423 39.0256 125.738 45.3062 131.516ZM108.112 169.199C108.866 172.968 108.112 172.968 101.832 168.446C97.812 165.682 85.2508 158.648 73.9457 152.618C62.3894 146.589 53.0941 140.309 53.0941 138.55C53.0941 134.028 106.856 163.924 108.112 169.199ZM167.652 139.806C166.647 141.313 157.855 147.092 147.806 152.87C137.757 158.648 126.2 165.431 121.678 168.194C116.905 170.958 113.137 171.963 112.383 170.455C111.378 169.199 116.151 164.928 122.683 161.16C129.466 157.392 142.027 150.106 151.072 145.082C167.15 135.786 170.918 134.53 167.652 139.806Z" stroke="black" stroke-opacity="0.5" stroke-width="2" mask="url(#path-2-outside-1_6_4378)"/>
<path d="M80.7295 74.4902C80.7295 78.761 81.2319 82.2781 81.7344 82.2781C82.2368 82.2781 84.7491 83.0318 87.0101 83.7855C90.5272 85.2928 91.0297 84.0367 90.276 77.0024C89.2711 65.4461 80.7295 63.1851 80.7295 74.4902Z" fill="#FDFF86"/>
<g filter="url(#filter0_f_6_4378)">
<path d="M80.7285 74.4902C80.7285 78.761 81.231 82.2781 81.7334 82.2781C82.2359 82.2781 84.7481 83.0318 87.0091 83.7855C90.5263 85.2928 91.0287 84.0367 90.275 77.0024C89.2701 65.4461 80.7285 63.1851 80.7285 74.4902Z" fill="#FDFF86"/>
</g>
<path d="M132.23 87.3003C132.983 88.5564 135.496 89.8125 137.505 89.8125C139.515 89.8125 140.52 88.5564 139.766 87.3003C139.013 85.7929 136.501 84.788 134.491 84.788C132.481 84.788 131.476 85.7929 132.23 87.3003Z" fill="#FDFF86"/>
<g filter="url(#filter1_f_6_4378)">
<path d="M132.23 87.3003C132.983 88.5564 135.496 89.8125 137.505 89.8125C139.515 89.8125 140.52 88.5564 139.766 87.3003C139.013 85.7929 136.501 84.788 134.491 84.788C132.481 84.788 131.476 85.7929 132.23 87.3003Z" fill="#FDFF86"/>
</g>
<path d="M63.1455 102.376C63.1455 103.632 64.1504 104.888 65.4065 104.888C66.6626 104.888 69.6773 105.642 71.6871 106.395C74.7018 107.651 75.4555 106.898 74.1994 103.883C72.4408 99.6122 63.1455 98.356 63.1455 102.376Z" fill="#8EFF8B"/>
<g filter="url(#filter2_f_6_4378)">
<path d="M63.1455 102.376C63.1455 103.632 64.1504 104.888 65.4065 104.888C66.6626 104.888 69.6773 105.642 71.6871 106.395C74.7018 107.651 75.4555 106.898 74.1994 103.883C72.4408 99.6122 63.1455 98.356 63.1455 102.376Z" fill="#8EFF8B"/>
</g>
<path d="M36.7644 112.426C36.0107 113.682 36.0107 114.938 37.2668 114.938C38.2717 114.938 42.0401 115.691 45.5572 116.696C51.0841 118.204 51.5866 117.953 48.3207 114.184C44.5523 109.411 39.0254 108.657 36.7644 112.426Z" fill="#8EFF8B"/>
<g filter="url(#filter3_f_6_4378)">
<path d="M36.7653 112.426C36.0117 113.682 36.0117 114.938 37.2678 114.938C38.2727 114.938 42.041 115.691 45.5582 116.696C51.0851 118.204 51.5876 117.953 48.3216 114.184C44.5533 109.411 39.0263 108.657 36.7653 112.426Z" fill="#8EFF8B"/>
</g>
<path d="M112.635 115.437C111.882 117.698 114.394 118.954 120.172 119.205C127.458 119.457 128.211 118.954 125.699 115.939C122.182 111.669 114.394 111.417 112.635 115.437Z" fill="#8EFF8B"/>
<g filter="url(#filter4_f_6_4378)">
<path d="M112.635 115.437C111.882 117.698 114.394 118.954 120.172 119.205C127.458 119.457 128.211 118.954 125.699 115.939C122.182 111.669 114.394 111.417 112.635 115.437Z" fill="#8EFF8B"/>
</g>
<defs>
<filter id="filter0_f_6_4378" x="76.7285" y="63.082" width="17.8486" height="25.2695" filterUnits="userSpaceOnUse" color-interpolation-filters="sRGB">
<feFlood flood-opacity="0" result="BackgroundImageFix"/>
<feBlend mode="normal" in="SourceGraphic" in2="BackgroundImageFix" result="shape"/>
<feGaussianBlur stdDeviation="2" result="effect1_foregroundBlur_6_4378"/>
</filter>
<filter id="filter1_f_6_4378" x="127.979" y="80.7891" width="16.0371" height="13.0234" filterUnits="userSpaceOnUse" color-interpolation-filters="sRGB">
<feFlood flood-opacity="0" result="BackgroundImageFix"/>
<feBlend mode="normal" in="SourceGraphic" in2="BackgroundImageFix" result="shape"/>
<feGaussianBlur stdDeviation="2" result="effect1_foregroundBlur_6_4378"/>
</filter>
<filter id="filter2_f_6_4378" x="59.1455" y="95.9336" width="19.6348" height="15.043" filterUnits="userSpaceOnUse" color-interpolation-filters="sRGB">
<feFlood flood-opacity="0" result="BackgroundImageFix"/>
<feBlend mode="normal" in="SourceGraphic" in2="BackgroundImageFix" result="shape"/>
<feGaussianBlur stdDeviation="2" result="effect1_foregroundBlur_6_4378"/>
</filter>
<filter id="filter3_f_6_4378" x="32.251" y="106.031" width="22.1006" height="15.5273" filterUnits="userSpaceOnUse" color-interpolation-filters="sRGB">
<feFlood flood-opacity="0" result="BackgroundImageFix"/>
<feBlend mode="normal" in="SourceGraphic" in2="BackgroundImageFix" result="shape"/>
<feGaussianBlur stdDeviation="2" result="effect1_foregroundBlur_6_4378"/>
</filter>
<filter id="filter4_f_6_4378" x="108.505" y="108.574" width="22.4971" height="14.6875" filterUnits="userSpaceOnUse" color-interpolation-filters="sRGB">
<feFlood flood-opacity="0" result="BackgroundImageFix"/>
<feBlend mode="normal" in="SourceGraphic" in2="BackgroundImageFix" result="shape"/>
<feGaussianBlur stdDeviation="2" result="effect1_foregroundBlur_6_4378"/>
</filter>
</defs>
</svg>
