<svg xmlns="http://www.w3.org/2000/svg" width="31" height="31" viewBox="0 0 31 31" fill="none">
  <path d="M5.16667 3.875H3.875V6.45833H5.16667V3.875Z" fill="#FFE455"/>
  <path d="M7.75008 2.58337H5.16675V3.87504H7.75008V2.58337Z" fill="#FFE455"/>
  <path d="M7.75008 6.45837H5.16675V7.75004H7.75008V6.45837Z" fill="#FFE455"/>
  <path d="M9.04167 3.875H7.75V6.45833H9.04167V3.875Z" fill="#FFE455"/>
  <path d="M3.87508 21.9583H5.16675V23.25H3.87508V25.8333H1.29175V21.9583H2.58341V20.6666H3.87508V21.9583Z" fill="#FFE455"/>
  <path d="M25.8333 19.375H27.1249V18.0833H28.4166V14.2083H27.1249V10.3333H25.8333V9.04163H23.2499V10.3333H21.9583V12.9166H20.6666V14.2083H19.3749V9.04163H11.6249V14.2083H10.3333V12.9166H9.04158V10.3333H7.74992V9.04163H5.16659V10.3333H3.87492V14.2083H2.58325V18.0833H3.87492V19.375H5.16659V20.6666H6.45825V25.8333H7.74992V27.125H9.04158V25.8333H10.3333V21.9583H9.04158V18.0833H7.74992V15.5H9.04158V16.7916H10.3333V18.0833H20.6666V16.7916H21.9583V15.5H23.2499V18.0833H21.9583V21.9583H20.6666V25.8333H21.9583V27.125H23.2499V25.8333H24.5416V20.6666H25.8333V19.375ZM18.0833 16.7916H12.9166V10.3333H18.0833V16.7916Z" fill="#FFE455"/>
  <path d="M29.7083 21.9583V25.8333H27.1249V23.25H25.8333V21.9583H27.1249V20.6666H28.4166V21.9583H29.7083Z" fill="#FFE455"/>
  <path d="M23.2499 3.875H21.9583V6.45833H23.2499V3.875Z" fill="#FFE455"/>
  <path d="M25.8333 2.58337H23.25V3.87504H25.8333V2.58337Z" fill="#FFE455"/>
  <path d="M25.8333 6.45837H23.25V7.75004H25.8333V6.45837Z" fill="#FFE455"/>
  <path d="M27.1249 3.875H25.8333V6.45833H27.1249V3.875Z" fill="#FFE455"/>
</svg>