<svg xmlns="http://www.w3.org/2000/svg" width="31" height="31" viewBox="0 0 31 31" fill="none">
  <path d="M24.5417 16.7916V12.9166H23.25V11.625H21.9583V7.74996H20.6667V5.16663H19.375V3.87496H18.0833V2.58329H16.7917V1.29163H14.2083V2.58329H15.5V5.16663H14.2083V7.74996H12.9167V9.04163H11.625V10.3333H10.3333V11.625H9.04167V12.9166H7.75V16.7916H9.04167V19.375H7.75V18.0833H6.45833V15.5H5.16667V18.0833H3.875V21.9583H5.16667V24.5416H6.45833V25.8333H7.75V27.125H9.04167V28.4166H10.3333V29.7083H20.6667V28.4166H21.9583V27.125H23.25V25.8333H24.5417V23.25H25.8333V16.7916H24.5417ZM20.6667 25.8333V27.125H18.0833V28.4166H12.9167V27.125H11.625V23.25H12.9167V21.9583H14.2083V20.6666H15.5V19.375H16.7917V14.2083H18.0833V16.7916H19.375V21.9583H18.0833V24.5416H19.375V23.25H20.6667V21.9583H21.9583V25.8333H20.6667ZM24.5417 21.9583H23.25V20.6666H20.6667V15.5H19.375V12.9166H18.0833V11.625H14.2083V12.9166H15.5V18.0833H14.2083V19.375H12.9167V20.6666H11.625V21.9583H10.3333V25.8333H9.04167V24.5416H7.75V23.25H6.45833V20.6666H10.3333V15.5H9.04167V14.2083H10.3333V12.9166H11.625V11.625H12.9167V10.3333H14.2083V9.04163H15.5V6.45829H16.7917V5.16663H18.0833V6.45829H19.375V9.04163H20.6667V12.9166H21.9583V14.2083H23.25V18.0833H24.5417V21.9583Z" fill="#76FF73"/>
</svg>